<svg id="Layer_1" data-name="Layer 1" xmlns="http://www.w3.org/2000/svg" viewBox="0 0 1729.1 100.3"><defs><style>.cls-1{isolation:isolate;}.cls-2{fill:#fff;}</style></defs><title>home-bg-text2</title><g class="cls-1"><path class="cls-2" d="M7.4,19.7H32.7L43.8,68.2,56.3,19.7H80.9V98.2H64.7V32.4l-16,65.7H36.1L21.4,32.4V98.1H7.4Z" transform="translate(-7.4 -18.4)"/><path class="cls-2" d="M109.8,58.5,94.4,57a19.09,19.09,0,0,1,7.4-13.5c4.2-3.1,9.6-4.7,16-4.7,5.4,0,9.8,1,13.1,3.1s5.4,4.5,6.2,7.3,1.3,7,1.3,12.8V85.2c0,7.2.3,11.5,1,12.9H124.3c-.5-1.6-.8-4.5-.8-8.9-3.6,6.7-8.9,10.1-15.9,10.1a15.27,15.27,0,0,1-11-4.1c-2.8-2.7-4.2-6.6-4.2-11.8,0-6.5,2.1-11.5,6.4-15s12.1-5.7,23.4-6.4V59.8c0-3.9-.4-6.6-1.2-8s-2.3-2.2-4.6-2.2C112.5,49.6,110.2,52.6,109.8,58.5Zm12.5,11.9c-4.7.5-8.1,1.6-10.1,3.1s-3,4.2-3,7.8c0,4.9,1.8,7.3,5.4,7.3,2,0,3.7-1.1,5.3-3.3s2.4-6.2,2.4-12.1Z" transform="translate(-7.4 -18.4)"/><path class="cls-2" d="M151.1,19.7h14.7V37l-8.4,15.4h-6.3L157.6,37h-6.5Z" transform="translate(-7.4 -18.4)"/><path class="cls-2" d="M179.9,19.7h17.3V83.5h25.3V98.2H179.9Z" transform="translate(-7.4 -18.4)"/><path class="cls-2" d="M273.3,71.8H242.9V75c0,5.2.7,8.7,2.1,10.4a6.69,6.69,0,0,0,5.6,2.6c4.9,0,7.7-3.3,8.3-9.9l14.4.9c-2.6,13.5-10.2,20.2-23,20.2-7.9,0-13.9-2.7-18-8s-6.1-12.5-6.1-21.4c0-10.1,2.2-17.8,6.5-23.1s10.2-8,17.5-8a21.62,21.62,0,0,1,16.5,7C271.1,50.7,273.3,59.3,273.3,71.8ZM258,62.4c0-.7.1-1.2.1-1.6,0-7.5-2.5-11.2-7.6-11.2S243,53.9,243,62.4Z" transform="translate(-7.4 -18.4)"/><path class="cls-2" d="M327.5,69.1c0,20.2-7.8,30.2-23.5,30.2s-23.6-10.1-23.6-30.2,7.9-30.2,23.6-30.2S327.5,49,327.5,69.1Zm-16.7,0q0-11.1-1.5-15c-1-2.6-2.8-3.9-5.3-3.9a5.5,5.5,0,0,0-5.3,3.7c-1.1,2.5-1.6,7.6-1.6,15.2,0,7.1.5,12,1.4,14.8A5.27,5.27,0,0,0,304,88c2.6,0,4.4-1.4,5.4-4.1S310.8,76.3,310.8,69.1Z" transform="translate(-7.4 -18.4)"/><path class="cls-2" d="M337,40.1h15.4V48c2.7-6.1,7.5-9.1,14.5-9.1a16.29,16.29,0,0,1,9.4,2.6A10.75,10.75,0,0,1,381,48c.7,2.6,1,6.7,1,12.1V98.2H365.8V60.1q0-5.85-1.5-7.2a5.72,5.72,0,0,0-4-1.4c-2.9,0-4.8.9-5.8,2.7s-1.4,5.1-1.4,10v34H337Z" transform="translate(-7.4 -18.4)"/><path class="cls-2" d="M430.4,19.7h17.4l22.4,78.5H452.6L448.7,82H426.6l-3.9,16.2H406.8Zm15,48.8-7.9-32.2-7.6,32.2Z" transform="translate(-7.4 -18.4)"/><path class="cls-2" d="M518.7,61.5l-15.1.5a21.39,21.39,0,0,0-1.7-8.1,4.85,4.85,0,0,0-4.7-2.7c-5.4,0-8.2,5.7-8.2,17.1,0,6.6.7,11.3,2,13.9s3.3,4,5.9,4c4.1,0,6.3-3.6,6.7-10.8l15.1,1c-1.3,15.3-8.9,22.9-22.7,22.9-7.5,0-13.2-2.5-17.1-7.6S473,79.2,473,69.2s2.1-17.4,6.2-22.6,10-7.8,17.5-7.8C510.1,38.9,517.5,46.4,518.7,61.5Z" transform="translate(-7.4 -18.4)"/><path class="cls-2" d="M570.9,61.5l-15.1.5a21.39,21.39,0,0,0-1.7-8.1,4.85,4.85,0,0,0-4.7-2.7c-5.4,0-8.2,5.7-8.2,17.1,0,6.6.7,11.3,2,13.9s3.3,4,5.9,4c4.1,0,6.3-3.6,6.7-10.8l15.1,1c-1.3,15.3-8.9,22.9-22.7,22.9-7.5,0-13.2-2.5-17.1-7.6s-5.9-12.5-5.9-22.5,2.1-17.4,6.2-22.6,10-7.8,17.5-7.8C562.3,38.9,569.7,46.4,570.9,61.5Z" transform="translate(-7.4 -18.4)"/><path class="cls-2" d="M624.3,69.1c0,20.2-7.8,30.2-23.5,30.2s-23.6-10.1-23.6-30.2,7.9-30.2,23.6-30.2S624.3,49,624.3,69.1Zm-16.7,0q0-11.1-1.5-15c-1-2.6-2.8-3.9-5.3-3.9a5.5,5.5,0,0,0-5.3,3.7c-1.1,2.5-1.6,7.6-1.6,15.2,0,7.1.5,12,1.4,14.8a5.27,5.27,0,0,0,5.5,4.1c2.6,0,4.4-1.4,5.4-4.1S607.6,76.3,607.6,69.1Z" transform="translate(-7.4 -18.4)"/><path class="cls-2" d="M633,40.1h16.2V77.4c0,3.8.3,6.3,1,7.5s2.2,1.9,4.5,1.9a6.48,6.48,0,0,0,4.8-1.6,6.7,6.7,0,0,0,2-4.3c.2-1.8.3-5.6.3-11.3V40.1H678V98.2H662.8V90.3c-2.3,3.9-4.6,6.5-6.9,7.5a18.59,18.59,0,0,1-8.1,1.6c-4.2,0-7.4-.9-9.6-2.6a11.32,11.32,0,0,1-4.3-6.6c-.7-2.6-1-6.8-1-12.4V40.1Z" transform="translate(-7.4 -18.4)"/><path class="cls-2" d="M690,40.1h15.4V48c2.7-6.1,7.5-9.1,14.5-9.1a16.29,16.29,0,0,1,9.4,2.6A10.75,10.75,0,0,1,734,48c.7,2.6,1,6.7,1,12.1V98.2H718.8V60.1q0-5.85-1.5-7.2a5.72,5.72,0,0,0-4-1.4c-2.9,0-4.8.9-5.8,2.7s-1.4,5.1-1.4,10v34H690Z" transform="translate(-7.4 -18.4)"/></g><g class="cls-1"><path class="cls-2" d="M748.6,22.3l15.8-.5V40.1h10.7V52.9H764.4V74.2a60.52,60.52,0,0,0,.3,7.7,4.39,4.39,0,0,0,1.7,2.9c1,.8,2.6,1.2,4.9,1.2,1.2,0,2.8,0,4.6-.1V98.2a45.93,45.93,0,0,1-9.9,1.2c-4.9,0-8.7-.9-11.3-2.8a12.2,12.2,0,0,1-5-7.1c-.7-2.8-1.1-7.3-1.1-13.5V52.8h-6.4V40.1h6.4Z" transform="translate(-7.4 -18.4)"/></g><g class="cls-1"><path class="cls-2" d="M798.9,58.5,783.5,57a19.09,19.09,0,0,1,7.4-13.5c4.2-3.1,9.6-4.7,16-4.7,5.4,0,9.8,1,13.1,3.1s5.4,4.5,6.2,7.3,1.3,7,1.3,12.8V85.2c0,7.2.3,11.5,1,12.9H813.4c-.5-1.6-.8-4.5-.8-8.9-3.6,6.7-8.9,10.1-15.9,10.1a15.27,15.27,0,0,1-11-4.1c-2.8-2.7-4.2-6.6-4.2-11.8,0-6.5,2.1-11.5,6.4-15S800,62.7,811.3,62V59.8c0-3.9-.4-6.6-1.2-8s-2.3-2.2-4.6-2.2C801.6,49.6,799.3,52.6,798.9,58.5Zm12.5,11.9c-4.7.5-8.1,1.6-10.1,3.1s-3,4.2-3,7.8c0,4.9,1.8,7.3,5.4,7.3,2,0,3.7-1.1,5.3-3.3s2.4-6.2,2.4-12.1V70.4Z" transform="translate(-7.4 -18.4)"/><path class="cls-2" d="M839.5,40.1h15.4V48c2.7-6.1,7.5-9.1,14.5-9.1a16.29,16.29,0,0,1,9.4,2.6,10.75,10.75,0,0,1,4.7,6.5c.7,2.6,1,6.7,1,12.1V98.2H868.3V60.1q0-5.85-1.5-7.2a5.72,5.72,0,0,0-4-1.4c-2.9,0-4.8.9-5.8,2.7s-1.4,5.1-1.4,10v34H839.4V40.1Z" transform="translate(-7.4 -18.4)"/><path class="cls-2" d="M939.1,61.5,924,62a21.39,21.39,0,0,0-1.7-8.1,4.85,4.85,0,0,0-4.7-2.7c-5.4,0-8.2,5.7-8.2,17.1,0,6.6.7,11.3,2,13.9s3.3,4,5.9,4c4.1,0,6.3-3.6,6.7-10.8l15.1,1c-1.3,15.3-8.9,22.9-22.7,22.9-7.5,0-13.2-2.5-17.1-7.6s-5.9-12.5-5.9-22.5,2.1-17.4,6.2-22.6,10-7.8,17.5-7.8C930.5,38.9,937.9,46.4,939.1,61.5Z" transform="translate(-7.4 -18.4)"/><path class="cls-2" d="M940.3,40.1h16.2l7.8,35.4,7.6-35.4h14l-17.5,59c-1.7,5.6-3.1,9.6-4.3,11.8a14.94,14.94,0,0,1-5.3,5.6,16.81,16.81,0,0,1-9.1,2.2,27.24,27.24,0,0,1-6.9-.9V105a36.39,36.39,0,0,0,4.5.3c3.1,0,5.3-.5,6.5-1.5s2.3-3.3,3.3-6.7Z" transform="translate(-7.4 -18.4)"/><path class="cls-2" d="M1061.4,36.7l-14.3,5.5c-2-6.5-5.8-9.7-11.2-9.7a8.08,8.08,0,0,0-6,2.2,6.61,6.61,0,0,0-2.2,5,6.4,6.4,0,0,0,2.6,5.3c1.7,1.3,5.4,3.1,11,5.2a60.94,60.94,0,0,1,11.9,5.6,20.26,20.26,0,0,1,7,7.5,21.87,21.87,0,0,1,2.7,11c0,7.3-2.5,13.3-7.6,18s-11.8,7-20.3,7q-21.3,0-27.3-21.6l15.1-4.3c1.8,7.9,6,11.8,12.6,11.8a11.38,11.38,0,0,0,7.3-2.3,7.41,7.41,0,0,0,2.8-6.1,7.63,7.63,0,0,0-2-5.1q-2-2.25-9-4.8a86.32,86.32,0,0,1-13.5-5.8,19.52,19.52,0,0,1-7.3-7.5,21.61,21.61,0,0,1-2.9-11.1c0-7.1,2.3-12.8,6.8-17.3s10.6-6.8,18-6.8C1049.6,18.5,1058.1,24.6,1061.4,36.7Z" transform="translate(-7.4 -18.4)"/><path class="cls-2" d="M1116.9,71.8h-30.4V75c0,5.2.7,8.7,2.1,10.4a6.69,6.69,0,0,0,5.6,2.6c4.9,0,7.7-3.3,8.3-9.9l14.4.9c-2.6,13.5-10.2,20.2-23,20.2-7.9,0-13.9-2.7-18-8s-6.1-12.5-6.1-21.4c0-10.1,2.2-17.8,6.5-23.1s10.2-8,17.5-8a21.62,21.62,0,0,1,16.5,7C1114.7,50.7,1116.9,59.3,1116.9,71.8Zm-15.3-9.4c0-.7.1-1.2.1-1.6,0-7.5-2.5-11.2-7.6-11.2s-7.5,4.3-7.5,12.8Z" transform="translate(-7.4 -18.4)"/></g><g class="cls-1"><path class="cls-2" d="M1126.4,40.1h14.3v14c2.6-9.9,7.1-14.8,13.7-14.8a15.76,15.76,0,0,1,2.8.3V55.4a15.33,15.33,0,0,0-2.7-.2c-7.9,0-11.8,6-11.8,17.9v25h-16.2v-58Z" transform="translate(-7.4 -18.4)"/></g><g class="cls-1"><path class="cls-2" d="M1159.5,40.1h15.6l8,34.2,8.1-34.2h13.5l-15.9,58.1H1176Z" transform="translate(-7.4 -18.4)"/><path class="cls-2" d="M1225.2,35.3h-16.4v-16h16.4Zm-16.4,4.8H1225V98.2h-16.2Z" transform="translate(-7.4 -18.4)"/><path class="cls-2" d="M1280.3,61.5l-15.1.6a21.39,21.39,0,0,0-1.7-8.1,4.85,4.85,0,0,0-4.7-2.7c-5.4,0-8.2,5.7-8.2,17.1,0,6.6.7,11.3,2,13.9s3.3,4,5.9,4c4.1,0,6.3-3.6,6.7-10.8l15.1,1c-1.3,15.3-8.9,22.9-22.7,22.9-7.5,0-13.2-2.5-17.1-7.6s-5.9-12.5-5.9-22.5,2.1-17.4,6.2-22.6,10-7.8,17.5-7.8C1271.8,38.9,1279.1,46.4,1280.3,61.5Z" transform="translate(-7.4 -18.4)"/><path class="cls-2" d="M1333.8,71.8h-30.4V75c0,5.2.7,8.7,2.1,10.4a6.69,6.69,0,0,0,5.6,2.6c4.9,0,7.7-3.3,8.3-9.9l14.4.9c-2.6,13.5-10.2,20.2-23,20.2-7.9,0-13.9-2.7-18-8s-6.1-12.5-6.1-21.4c0-10.1,2.2-17.8,6.5-23.1s10.2-8,17.5-8a21.62,21.62,0,0,1,16.5,7C1331.6,50.7,1333.8,59.3,1333.8,71.8Zm-15.3-9.4c0-.7.1-1.2.1-1.6,0-7.5-2.5-11.2-7.6-11.2s-7.5,4.3-7.5,12.8Z" transform="translate(-7.4 -18.4)"/><path class="cls-2" d="M1381.6,54.1,1370,57.6c-1.5-5.3-4.4-7.9-8.5-7.9q-5.1,0-5.1,5.1a5.22,5.22,0,0,0,1.9,4.4q2,1.5,7.8,3.6a86,86,0,0,1,9.8,4.1,13.56,13.56,0,0,1,5.2,5.4,16,16,0,0,1,2.1,8.3,17.56,17.56,0,0,1-5.8,13.5c-3.9,3.6-9.3,5.5-16.2,5.5-13.1,0-20.3-5.8-21.7-17.3l12.9-2.1c1.1,5.8,4.1,8.7,9.1,8.7,4.3,0,6.4-1.8,6.4-5.4a5.22,5.22,0,0,0-1.9-4.4,24.25,24.25,0,0,0-7.4-3.2c-6.7-2.1-11.3-4.7-13.7-7.8a15.86,15.86,0,0,1-3.7-10.5,17.07,17.07,0,0,1,5.9-13.5c3.9-3.4,8.8-5.1,14.8-5.1C1372.2,38.9,1378.8,43.9,1381.6,54.1Z" transform="translate(-7.4 -18.4)"/><path class="cls-2" d="M1414.8,19.7h17.3V83.5h25.3V98.2h-42.6V19.7Z" transform="translate(-7.4 -18.4)"/><path class="cls-2" d="M1479.8,35.3h-16.4v-16h16.4Zm-16.3,4.8h16.2V98.2h-16.2Z" transform="translate(-7.4 -18.4)"/><path class="cls-2" d="M1491.6,40.1H1507V48c2.8-6.1,7.5-9.1,14.1-9.1,6.9,0,11.1,3,12.5,9.1,2.6-6.1,7.3-9.1,14.1-9.1a17.27,17.27,0,0,1,9.1,2.1,11.41,11.41,0,0,1,4.7,5.7c.9,2.4,1.3,6.9,1.3,13.5v38h-16.2V61.9c0-4.3-.3-7.1-.9-8.5s-2-2-4.1-2c-2.5,0-4.2.9-4.9,2.6s-1.1,5.1-1.1,10.3V98.1h-16.2V61.4q0-6.15-.9-8.1c-.6-1.2-1.9-1.8-4.1-1.8-2.6,0-4.3.9-5.2,2.7s-1.3,5.2-1.3,10.2V98.2h-16.2V40.1Z" transform="translate(-7.4 -18.4)"/><path class="cls-2" d="M1590.1,35.3h-16.4v-16h16.4Zm-16.3,4.8H1590V98.2h-16.2Z" transform="translate(-7.4 -18.4)"/><path class="cls-2" d="M1604.3,22.3l15.8-.5V40.1h10.7V52.9h-10.7V74.2a60.5,60.5,0,0,0,.3,7.7,4.39,4.39,0,0,0,1.7,2.9c1,.8,2.6,1.2,4.9,1.2,1.2,0,2.8,0,4.6-.1V98.2a45.93,45.93,0,0,1-9.9,1.2c-4.9,0-8.7-.9-11.3-2.8a12.2,12.2,0,0,1-5-7.1c-.7-2.8-1.1-7.3-1.1-13.5V52.8h-6.4V40.1h6.4Z" transform="translate(-7.4 -18.4)"/><path class="cls-2" d="M1682.7,71.8h-30.4V75c0,5.2.7,8.7,2.1,10.4A6.69,6.69,0,0,0,1660,88c4.9,0,7.7-3.3,8.3-9.9l14.4.9c-2.6,13.5-10.2,20.2-23,20.2-7.9,0-13.9-2.7-18-8s-6.1-12.5-6.1-21.4c0-10.1,2.2-17.8,6.5-23.1s10.2-8,17.5-8a21.62,21.62,0,0,1,16.5,7C1680.5,50.7,1682.7,59.3,1682.7,71.8Zm-15.3-9.4c0-.7.1-1.2.1-1.6,0-7.5-2.5-11.2-7.6-11.2s-7.5,4.3-7.5,12.8Z" transform="translate(-7.4 -18.4)"/><path class="cls-2" d="M1720.6,19.7h15.9V98.2h-15.1V88.6c-2.5,6.9-6.9,10.4-13.2,10.4a14.84,14.84,0,0,1-13.9-8.2c-3-5.5-4.6-12.6-4.6-21.4,0-10.1,1.8-17.6,5.3-22.6a16.38,16.38,0,0,1,14.1-7.5c5.4,0,9.3,2.1,11.6,6.2V19.7Zm0,44.7c0-5.7-.6-9.5-1.8-11.5a6,6,0,0,0-5.3-2.9,5.55,5.55,0,0,0-5.6,4c-1,2.7-1.5,8.2-1.5,16.7,0,6.3.5,10.7,1.6,13.2s2.8,3.8,5.3,3.8a6.49,6.49,0,0,0,5.2-2.6q2.1-2.55,2.1-10.5V64.4Z" transform="translate(-7.4 -18.4)"/></g></svg>