<?xml version="1.0" encoding="utf-8"?>
<!-- Generator: Adobe Illustrator 21.0.0, SVG Export Plug-In . SVG Version: 6.00 Build 0)  -->
<svg version="1.1" id="Layer_3" xmlns="http://www.w3.org/2000/svg" xmlns:xlink="http://www.w3.org/1999/xlink" x="0px" y="0px"
	 viewBox="0 0 349 76.5" style="enable-background:new 0 0 349 76.5;" xml:space="preserve">
<style type="text/css">
	.st0{fill:#FFFFFF;}
	.st1{enable-background:new    ;}
	.st2{clip-path:url(#SVGID_2_);enable-background:new    ;}
	.st3{fill:#8D8D8D;}
	.st4{fill:#878787;}
	.st5{fill:#818181;}
	.st6{fill:#7C7C7C;}
	.st7{fill:#767676;}
	.st8{clip-path:url(#SVGID_4_);enable-background:new    ;}
	.st9{fill:#747474;}
	.st10{clip-path:url(#SVGID_6_);enable-background:new    ;}
	.st11{fill:#A9A9A9;}
	.st12{fill:#AFAFAF;}
	.st13{fill:#B5B5B5;}
	.st14{fill:#BABABA;}
	.st15{fill:#B1B1B1;}
	.st16{fill:#ADADAD;}
	.st17{fill:#B6B6B6;}
	.st18{clip-path:url(#SVGID_8_);enable-background:new    ;}
	.st19{fill:#C0C0C0;}
	.st20{fill:#C6C6C6;}
	.st21{fill:#CCCCCC;}
	.st22{fill:#D1D1D1;}
	.st23{fill:#D7D7D7;}
	.st24{fill:#DDDDDD;}
	.st25{fill:#E2E2E2;}
	.st26{fill:#E8E8E8;}
	.st27{fill:#EEEEEE;}
	.st28{clip-path:url(#SVGID_10_);enable-background:new    ;}
	.st29{clip-path:url(#SVGID_12_);enable-background:new    ;}
	.st30{clip-path:url(#SVGID_14_);enable-background:new    ;}
	.st31{fill:#929292;}
	.st32{fill:#989898;}
	.st33{fill:#9E9E9E;}
	.st34{fill:#A4A4A4;}
	.st35{fill:#8B8B8B;}
	.st36{clip-path:url(#SVGID_16_);enable-background:new    ;}
	.st37{fill:#959595;}
	.st38{fill:#0E1034;}
</style>
<g>
	<path class="st0" d="M115.6,44.4h3.5l4.6,16h-3.6l-0.8-3.3h-4.5l-0.8,3.3h-3.2L115.6,44.4z M118.7,54.3l-1.6-6.5l-1.5,6.5H118.7z"
		/>
	<path class="st0" d="M133.6,52.9l-3.1,0.1c0-0.7-0.2-1.3-0.4-1.6c-0.2-0.4-0.5-0.6-0.9-0.6c-1.1,0-1.7,1.2-1.7,3.5
		c0,1.4,0.1,2.3,0.4,2.8c0.3,0.5,0.7,0.8,1.2,0.8c0.8,0,1.3-0.7,1.4-2.2l3.1,0.2c-0.3,3.1-1.8,4.7-4.6,4.7c-1.5,0-2.7-0.5-3.5-1.5
		s-1.2-2.6-1.2-4.6c0-2,0.4-3.5,1.3-4.6c0.8-1.1,2-1.6,3.6-1.6C131.9,48.3,133.4,49.8,133.6,52.9z"/>
	<path class="st0" d="M144.2,52.9l-3.1,0.1c0-0.7-0.2-1.3-0.4-1.6c-0.2-0.4-0.5-0.6-0.9-0.6c-1.1,0-1.7,1.2-1.7,3.5
		c0,1.4,0.1,2.3,0.4,2.8c0.3,0.5,0.7,0.8,1.2,0.8c0.8,0,1.3-0.7,1.4-2.2l3.1,0.2c-0.3,3.1-1.8,4.7-4.6,4.7c-1.5,0-2.7-0.5-3.5-1.5
		s-1.2-2.6-1.2-4.6c0-2,0.4-3.5,1.3-4.6c0.8-1.1,2-1.6,3.6-1.6C142.5,48.3,144,49.8,144.2,52.9z"/>
	<path class="st0" d="M155.1,54.5c0,4.1-1.6,6.2-4.8,6.2c-3.2,0-4.8-2.1-4.8-6.2c0-4.1,1.6-6.1,4.8-6.1
		C153.5,48.3,155.1,50.4,155.1,54.5z M151.7,54.5c0-1.5-0.1-2.5-0.3-3.1c-0.2-0.5-0.6-0.8-1.1-0.8c-0.5,0-0.9,0.3-1.1,0.8
		c-0.2,0.5-0.3,1.5-0.3,3.1c0,1.4,0.1,2.5,0.3,3c0.2,0.6,0.6,0.8,1.1,0.8c0.5,0,0.9-0.3,1.1-0.8C151.6,56.9,151.7,55.9,151.7,54.5z"
		/>
	<path class="st0" d="M156.9,48.5h3.3v7.6c0,0.8,0.1,1.3,0.2,1.5c0.1,0.3,0.4,0.4,0.9,0.4c0.4,0,0.8-0.1,1-0.3
		c0.2-0.2,0.4-0.5,0.4-0.9s0.1-1.1,0.1-2.3v-6h3.3v11.8H163v-1.6c-0.5,0.8-0.9,1.3-1.4,1.5s-1,0.3-1.6,0.3c-0.9,0-1.5-0.2-2-0.5
		c-0.5-0.4-0.7-0.8-0.9-1.3c-0.1-0.5-0.2-1.4-0.2-2.5V48.5z"/>
	<path class="st0" d="M168.5,48.5h3.1v1.6c0.5-1.2,1.5-1.9,3-1.9c0.8,0,1.4,0.2,1.9,0.5s0.8,0.8,1,1.3c0.1,0.5,0.2,1.4,0.2,2.5v7.8
		h-3.3v-7.8c0-0.8-0.1-1.3-0.3-1.5c-0.2-0.2-0.5-0.3-0.8-0.3c-0.6,0-1,0.2-1.2,0.5c-0.2,0.4-0.3,1-0.3,2v6.9h-3.3V48.5z"/>
	<path class="st0" d="M180.4,44.9l3.2-0.1v3.7h2.2v2.6h-2.2v4.3c0,0.8,0,1.3,0.1,1.6s0.2,0.4,0.4,0.6c0.2,0.2,0.5,0.2,1,0.2
		c0.2,0,0.6,0,0.9,0v2.5c-0.7,0.2-1.4,0.2-2,0.2c-1,0-1.8-0.2-2.3-0.6c-0.5-0.4-0.9-0.9-1-1.4c-0.1-0.6-0.2-1.5-0.2-2.8v-4.7h-1.3
		v-2.6h1.3V44.9z"/>
	<path class="st0" d="M190.6,47.6h-3.3v-3.3h3.3V47.6z M187.3,48.5h3.3v11.8h-3.3V48.5z"/>
	<path class="st0" d="M193,48.5h3.1v1.6c0.5-1.2,1.5-1.9,3-1.9c0.8,0,1.4,0.2,1.9,0.5s0.8,0.8,1,1.3c0.1,0.5,0.2,1.4,0.2,2.5v7.8
		h-3.3v-7.8c0-0.8-0.1-1.3-0.3-1.5c-0.2-0.2-0.5-0.3-0.8-0.3c-0.6,0-1,0.2-1.2,0.5c-0.2,0.4-0.3,1-0.3,2v6.9H193V48.5z"/>
	<path class="st0" d="M214.5,46.6v2.2c-0.2-0.1-0.5-0.1-0.7-0.1c-0.7,0-1.1,0.4-1.3,1.1c0.6,0.6,0.9,1.4,0.9,2.4
		c0,1.1-0.4,1.9-1.2,2.6c-0.8,0.6-1.8,1-3.1,1c-0.5,0-1-0.1-1.5-0.2c-0.5,0.3-0.8,0.6-0.8,1c0,0.3,0.1,0.5,0.4,0.6
		c0.3,0.1,1.1,0.2,2.4,0.2c1.2,0.1,2.1,0.2,2.7,0.4c0.6,0.2,1.1,0.5,1.5,1c0.4,0.5,0.6,1.2,0.6,2c0,2.6-1.9,4-5.8,4
		c-3.2,0-4.8-0.9-4.8-2.8c0-1,0.6-1.8,1.9-2.2c-1-0.5-1.5-1.2-1.5-2c0-1,0.7-1.9,2-2.6c-1.2-0.6-1.8-1.6-1.8-3
		c0-1.2,0.4-2.1,1.2-2.7c0.8-0.6,1.9-0.9,3.2-0.9c0.9,0,1.7,0.2,2.5,0.5c0.1-0.8,0.3-1.4,0.6-1.8c0.3-0.4,0.9-0.5,1.6-0.5
		C213.9,46.5,214.2,46.5,214.5,46.6z M207.5,59.9c-0.7,0.3-1,0.8-1,1.4c0,0.8,0.9,1.2,2.7,1.2c1.6,0,2.3-0.4,2.3-1.2
		c0-0.3-0.1-0.6-0.3-0.7s-0.4-0.3-0.6-0.4s-0.8-0.1-1.6-0.1C208.5,60,208,59.9,207.5,59.9z M210,52c0-1.3-0.3-1.9-1-1.9
		c-0.4,0-0.7,0.2-0.9,0.5c-0.2,0.3-0.3,0.8-0.3,1.5c0,1.2,0.4,1.8,1.1,1.8c0.4,0,0.7-0.1,0.8-0.4C209.9,53.2,210,52.7,210,52z"/>
	<path class="st0" d="M220.2,44.4h5.2l2.3,9.9l2.5-9.9h5v16h-3.3V47l-3.3,13.4h-2.6l-3-13.4v13.4h-2.9V44.4z"/>
	<path class="st0" d="M241.1,52.3l-3.1-0.3c0.1-1.2,0.7-2.1,1.5-2.7c0.9-0.6,1.9-1,3.3-1c1.1,0,2,0.2,2.7,0.6
		c0.7,0.4,1.1,0.9,1.3,1.5c0.2,0.6,0.3,1.4,0.3,2.6v4.7c0,1.5,0.1,2.3,0.2,2.6h-3.1c-0.1-0.3-0.2-0.9-0.2-1.8
		c-0.7,1.4-1.8,2.1-3.2,2.1c-0.9,0-1.7-0.3-2.2-0.8c-0.6-0.6-0.9-1.4-0.9-2.4c0-1.3,0.4-2.3,1.3-3.1c0.9-0.7,2.5-1.2,4.8-1.3v-0.4
		c0-0.8-0.1-1.3-0.2-1.6c-0.2-0.3-0.5-0.5-0.9-0.5C241.6,50.5,241.2,51.1,241.1,52.3z M243.6,54.7c-1,0.1-1.6,0.3-2.1,0.6
		c-0.4,0.3-0.6,0.8-0.6,1.6c0,1,0.4,1.5,1.1,1.5c0.4,0,0.8-0.2,1.1-0.7c0.3-0.4,0.5-1.3,0.5-2.5V54.7z"/>
	<path class="st0" d="M255.1,44.4h3.2v16h-3.1v-2c-0.5,1.4-1.4,2.1-2.7,2.1c-1.3,0-2.2-0.6-2.8-1.7c-0.6-1.1-0.9-2.6-0.9-4.4
		c0-2.1,0.4-3.6,1.1-4.6c0.7-1,1.7-1.5,2.9-1.5c1.1,0,1.9,0.4,2.4,1.3V44.4z M255.1,53.5c0-1.2-0.1-1.9-0.4-2.3
		c-0.2-0.4-0.6-0.6-1.1-0.6c-0.6,0-0.9,0.3-1.1,0.8s-0.3,1.7-0.3,3.4c0,1.3,0.1,2.2,0.3,2.7c0.2,0.5,0.6,0.8,1.1,0.8
		c0.4,0,0.8-0.2,1.1-0.5c0.3-0.3,0.4-1.1,0.4-2.1V53.5z"/>
	<path class="st0" d="M269.9,55h-6.2v0.7c0,1.1,0.1,1.8,0.4,2.1c0.3,0.4,0.7,0.5,1.1,0.5c1,0,1.6-0.7,1.7-2l2.9,0.2
		c-0.5,2.7-2.1,4.1-4.7,4.1c-1.6,0-2.8-0.5-3.7-1.6c-0.8-1.1-1.3-2.5-1.3-4.4c0-2.1,0.4-3.6,1.3-4.7c0.9-1.1,2.1-1.6,3.6-1.6
		c1.3,0,2.5,0.5,3.4,1.4S269.9,52.5,269.9,55z M266.8,53.1c0-0.1,0-0.2,0-0.3c0-1.5-0.5-2.3-1.5-2.3c-1,0-1.5,0.9-1.5,2.6H266.8z"/>
	<path class="st0" d="M286.4,47.9l-2.9,1.1c-0.4-1.3-1.2-2-2.3-2c-0.5,0-0.9,0.1-1.2,0.4c-0.3,0.3-0.5,0.6-0.5,1
		c0,0.5,0.2,0.8,0.5,1.1c0.4,0.3,1.1,0.6,2.2,1.1c1,0.4,1.8,0.8,2.4,1.1c0.6,0.4,1.1,0.9,1.4,1.5c0.4,0.6,0.5,1.4,0.5,2.2
		c0,1.5-0.5,2.7-1.5,3.7c-1,1-2.4,1.4-4.1,1.4c-2.9,0-4.7-1.5-5.5-4.4l3.1-0.9c0.4,1.6,1.2,2.4,2.6,2.4c0.6,0,1.1-0.2,1.5-0.5
		s0.6-0.7,0.6-1.2c0-0.4-0.1-0.7-0.4-1c-0.3-0.3-0.9-0.6-1.8-1c-1.2-0.4-2.1-0.8-2.7-1.2s-1.1-0.9-1.5-1.5c-0.4-0.7-0.6-1.4-0.6-2.3
		c0-1.4,0.5-2.6,1.4-3.5s2.1-1.4,3.7-1.4C283.9,44.1,285.7,45.4,286.4,47.9z"/>
	<path class="st0" d="M291.9,47.6h-3.3v-3.3h3.3V47.6z M288.5,48.5h3.3v11.8h-3.3V48.5z"/>
	<path class="st0" d="M294.3,48.5h3.1v1.6c0.6-1.2,1.5-1.9,2.9-1.9c1.4,0,2.3,0.6,2.6,1.9c0.5-1.2,1.5-1.9,2.9-1.9
		c0.8,0,1.4,0.1,1.8,0.4c0.5,0.3,0.8,0.7,1,1.2c0.2,0.5,0.3,1.4,0.3,2.8v7.7h-3.3V53c0-0.9-0.1-1.5-0.2-1.7
		c-0.1-0.3-0.4-0.4-0.8-0.4c-0.5,0-0.9,0.2-1,0.5c-0.2,0.3-0.2,1-0.2,2.1v6.9h-3.3v-7.5c0-0.8-0.1-1.4-0.2-1.6
		c-0.1-0.2-0.4-0.4-0.8-0.4c-0.5,0-0.9,0.2-1.1,0.5c-0.2,0.4-0.3,1.1-0.3,2.1v6.9h-3.3V48.5z"/>
	<path class="st0" d="M311.1,48.5h3v1.8c0.6-1.3,1.5-1.9,2.7-1.9c1.1,0,2,0.5,2.7,1.4s1.1,2.4,1.1,4.4c0,2.1-0.4,3.6-1.1,4.7
		s-1.7,1.6-3,1.6c-0.9,0-1.7-0.3-2.3-1v4.9h-3.2V48.5z M314.3,55.5c0,1.1,0.1,1.9,0.3,2.2c0.2,0.3,0.6,0.5,1.1,0.5
		c0.5,0,0.9-0.2,1.1-0.7s0.4-1.5,0.4-3.3c0-1.4-0.1-2.4-0.3-2.9c-0.2-0.5-0.6-0.8-1.1-0.8c-0.4,0-0.8,0.2-1,0.5
		c-0.3,0.3-0.4,1.1-0.4,2.2V55.5z"/>
	<path class="st0" d="M322.5,44.4h3.3v16h-3.3V44.4z"/>
	<path class="st0" d="M337.3,55h-6.2v0.7c0,1.1,0.1,1.8,0.4,2.1c0.3,0.4,0.7,0.5,1.1,0.5c1,0,1.6-0.7,1.7-2l2.9,0.2
		c-0.5,2.7-2.1,4.1-4.7,4.1c-1.6,0-2.8-0.5-3.7-1.6c-0.8-1.1-1.3-2.5-1.3-4.4c0-2.1,0.4-3.6,1.3-4.7s2.1-1.6,3.6-1.6
		c1.3,0,2.5,0.5,3.4,1.4S337.3,52.5,337.3,55z M334.2,53.1c0-0.1,0-0.2,0-0.3c0-1.5-0.5-2.3-1.5-2.3c-1,0-1.5,0.9-1.5,2.6H334.2z"/>
</g>
<g>
	<g>
		<g class="st1">
			<g class="st1">
				<defs>
					<path id="SVGID_1_" class="st1" d="M33.2,46L11.8,64.3c0,0,0,0,0,0c0,0,0,0,0,0c0,0,0,0,0,0s0,0,0,0c0,0,0.1-0.1,0.1-0.1
						c0,0,0-0.1,0.1-0.1c0,0,0-0.1,0.1-0.1c0,0,0-0.1,0-0.1l21.3-18.1c0,0,0,0.1,0,0.1c0,0,0,0.1,0,0.1c0,0,0,0.1-0.1,0.1
						c0,0,0,0.1-0.1,0.1C33.3,45.9,33.3,45.9,33.2,46C33.2,45.9,33.2,45.9,33.2,46C33.2,45.9,33.2,46,33.2,46
						C33.2,46,33.2,46,33.2,46z"/>
				</defs>
				<clipPath id="SVGID_2_">
					<use xlink:href="#SVGID_1_"  style="overflow:visible;"/>
				</clipPath>
				<g class="st2">
					<polyline class="st3" points="12.2,63.6 33.5,45.5 33.5,45.5 33.5,45.5 33.5,45.5 33.5,45.5 12.2,63.6 12.2,63.6 12.2,63.6 
						12.2,63.6 12.2,63.6 					"/>
					<path class="st4" d="M12.2,63.6l21.3-18.1c0,0,0,0,0,0s0,0,0,0s0,0,0,0c0,0,0,0,0,0L12.2,63.6C12.2,63.7,12.2,63.7,12.2,63.6
						C12.2,63.7,12.2,63.7,12.2,63.6C12.2,63.7,12.2,63.7,12.2,63.6C12.2,63.6,12.2,63.6,12.2,63.6"/>
					<path class="st5" d="M12.2,63.7l21.3-18.2c0,0,0,0,0,0c0,0,0,0,0,0c0,0,0,0,0,0c0,0,0,0,0,0L12.2,63.7
						C12.2,63.8,12.2,63.8,12.2,63.7C12.2,63.8,12.2,63.8,12.2,63.7C12.2,63.8,12.2,63.7,12.2,63.7C12.2,63.7,12.2,63.7,12.2,63.7"
						/>
					<path class="st6" d="M12.1,63.8l21.3-18.2c0,0,0,0,0,0s0,0,0,0s0,0,0,0s0,0,0,0L12.1,63.9C12.1,63.9,12.1,63.9,12.1,63.8
						C12.1,63.9,12.1,63.9,12.1,63.8C12.1,63.9,12.1,63.8,12.1,63.8C12.1,63.8,12.1,63.8,12.1,63.8"/>
					<path class="st7" d="M12.1,63.9l21.3-18.2c0,0,0,0,0,0c0,0,0,0,0,0c0,0,0,0,0,0c0,0,0,0,0,0c0,0,0,0,0,0s0,0,0,0c0,0,0,0,0,0
						c0,0,0,0,0,0L11.8,64.3c0,0,0,0,0,0c0,0,0,0,0,0c0,0,0,0,0,0c0,0,0,0,0,0c0,0,0,0,0-0.1c0,0,0,0,0-0.1C12,64,12.1,64,12.1,63.9
						C12.1,64,12.1,63.9,12.1,63.9"/>
					<polyline class="st6" points="11.8,64.3 33.2,46 33.2,46 33.2,46 33.2,46 33.2,46 11.8,64.3 11.8,64.3 11.8,64.3 11.8,64.3 
						11.8,64.3 					"/>
				</g>
			</g>
			<g class="st1">
				<defs>
					<path id="SVGID_3_" class="st1" d="M51.8,46C46.9,52.3,42,58.6,37,64.8c0,0,0,0,0-0.1c0,0,0,0,0-0.1c0,0,0,0,0-0.1
						c0,0,0,0,0-0.1l14.8-18.7c0,0,0,0,0,0C51.9,45.9,51.9,45.9,51.8,46C51.9,46,51.9,46,51.8,46C51.8,46,51.8,46,51.8,46z"/>
				</defs>
				<clipPath id="SVGID_4_">
					<use xlink:href="#SVGID_3_"  style="overflow:visible;"/>
				</clipPath>
				<g class="st8">
					<polyline class="st6" points="37.2,64.6 51.9,45.9 51.9,45.9 51.9,45.9 51.9,45.9 51.9,45.9 37.2,64.6 37.2,64.6 37.2,64.6 
						37.2,64.6 37.2,64.6 					"/>
					<path class="st7" d="M37.2,64.6l14.8-18.7c0,0,0,0,0,0s0,0,0,0c0,0,0,0,0,0c0,0,0,0,0,0L37,64.8c0,0,0,0,0-0.1c0,0,0,0,0-0.1
						C37.1,64.7,37.1,64.7,37.2,64.6C37.2,64.6,37.2,64.6,37.2,64.6"/>
				</g>
			</g>
			<g>
				<polygon class="st9" points="43.9,52.3 57,36.8 51.9,45.9 37.2,64.6 				"/>
			</g>
			<g>
				<polygon class="st3" points="18.1,13.3 38.5,8.6 33.5,45.5 12.2,63.6 				"/>
			</g>
			<g class="st1">
				<defs>
					<path id="SVGID_5_" class="st1" d="M14.3,6.8l21.6-2.9c0,0,0,0,0.1,0s0,0,0.1,0c0,0,0,0,0.1,0c0,0,0,0,0.1,0L14.7,6.7
						c0,0-0.1,0-0.1,0c0,0-0.1,0-0.1,0C14.5,6.8,14.4,6.8,14.3,6.8C14.4,6.8,14.3,6.8,14.3,6.8z"/>
				</defs>
				<clipPath id="SVGID_6_">
					<use xlink:href="#SVGID_5_"  style="overflow:visible;"/>
				</clipPath>
				<g class="st10">
					<polyline class="st11" points="14.3,6.8 35.9,3.9 35.9,3.9 35.9,3.9 35.9,3.9 35.9,3.9 14.3,6.8 14.3,6.8 14.3,6.8 14.3,6.8 
						14.3,6.8 					"/>
					<path class="st12" d="M14.3,6.8l21.6-2.9c0,0,0,0,0,0c0,0,0,0,0,0c0,0,0,0,0,0c0,0,0,0,0,0L14.5,6.8c0,0,0,0,0,0
						S14.4,6.8,14.3,6.8C14.4,6.8,14.4,6.8,14.3,6.8C14.3,6.8,14.3,6.8,14.3,6.8"/>
					<path class="st13" d="M14.5,6.8L36,3.9c0,0,0,0,0,0c0,0,0,0,0,0c0,0,0,0,0,0c0,0,0,0,0,0L14.6,6.7c0,0,0,0,0,0
						C14.6,6.7,14.6,6.7,14.5,6.8C14.5,6.7,14.5,6.7,14.5,6.8C14.5,6.7,14.5,6.8,14.5,6.8"/>
					<polyline class="st14" points="14.6,6.7 36.1,3.9 36.1,3.9 36.1,3.9 36.1,3.9 36.1,3.9 14.7,6.7 14.7,6.7 14.6,6.7 14.6,6.7 
						14.6,6.7 					"/>
				</g>
			</g>
			<g>
				<polygon class="st15" points="46.9,46.8 59.2,32.7 68.8,32.9 60.1,47.2 				"/>
			</g>
			<g>
				<polygon class="st16" points="14.7,6.7 36.1,3.9 39.3,3.8 18.9,6.6 				"/>
			</g>
			<g>
				<polygon class="st17" points="24.6,11.6 43.3,7.3 50.4,38.4 35,54.4 				"/>
			</g>
			<g class="st1">
				<defs>
					<path id="SVGID_7_" class="st1" d="M18.9,6.6l20.3-2.9c0.2,0,0.3,0,0.5,0c0.2,0,0.3,0,0.4,0c0.1,0,0.3,0,0.4,0.1
						c0.1,0,0.2,0.1,0.4,0.1c0.1,0,0.2,0.1,0.3,0.1c0.1,0,0.2,0.1,0.3,0.1c0.1,0.1,0.2,0.1,0.3,0.2c0.1,0.1,0.2,0.1,0.3,0.2
						c0.1,0.1,0.2,0.1,0.2,0.2c0.1,0.1,0.1,0.2,0.2,0.3c0.1,0.1,0.1,0.2,0.2,0.3c0.1,0.1,0.1,0.2,0.2,0.3c0,0.1,0.1,0.2,0.1,0.4
						c0,0.1,0.1,0.3,0.1,0.4c0,0.1,0.1,0.3,0.1,0.4c0,0.1,0.1,0.3,0.1,0.5l-18.7,4.3c0-0.2-0.1-0.4-0.1-0.6c0-0.2-0.1-0.4-0.2-0.6
						c-0.1-0.2-0.1-0.4-0.2-0.5c-0.1-0.2-0.1-0.3-0.2-0.5c-0.1-0.2-0.1-0.3-0.2-0.5c-0.1-0.1-0.2-0.3-0.3-0.4
						c-0.1-0.1-0.2-0.3-0.3-0.4C23.1,8,23,7.9,22.9,7.8c-0.1-0.1-0.2-0.2-0.4-0.3c-0.1-0.1-0.3-0.2-0.4-0.2
						c-0.1-0.1-0.3-0.1-0.4-0.2c-0.1-0.1-0.3-0.1-0.5-0.2c-0.2,0-0.3-0.1-0.5-0.1c-0.2,0-0.4-0.1-0.6-0.1c-0.2,0-0.4,0-0.6,0
						C19.4,6.6,19.2,6.6,18.9,6.6z"/>
				</defs>
				<clipPath id="SVGID_8_">
					<use xlink:href="#SVGID_7_"  style="overflow:visible;"/>
				</clipPath>
				<g class="st18">
					<path class="st14" d="M18.9,6.6l20.3-2.9c0,0,0.1,0,0.1,0c0,0,0.1,0,0.1,0c0,0,0.1,0,0.1,0s0.1,0,0.1,0L19.4,6.6
						c0,0-0.1,0-0.1,0s-0.1,0-0.1,0c0,0-0.1,0-0.1,0C19,6.6,19,6.6,18.9,6.6"/>
					<path class="st19" d="M19.4,6.6l20.2-2.9c0,0,0.1,0,0.1,0s0.1,0,0.1,0c0,0,0.1,0,0.1,0c0,0,0.1,0,0.1,0L19.9,6.7
						c0,0-0.1,0-0.1,0c0,0-0.1,0-0.1,0c0,0-0.1,0-0.1,0C19.5,6.6,19.4,6.6,19.4,6.6"/>
					<path class="st20" d="M19.9,6.7L40,3.8c0,0,0.1,0,0.1,0c0,0,0.1,0,0.1,0c0,0,0,0,0.1,0c0,0,0,0,0.1,0l-20,2.9c0,0-0.1,0-0.1,0
						c0,0-0.1,0-0.1,0c0,0-0.1,0-0.1,0C19.9,6.7,19.9,6.7,19.9,6.7"/>
					<path class="st21" d="M20.3,6.7l20-2.9c0,0,0,0,0.1,0c0,0,0,0,0.1,0c0,0,0,0,0.1,0c0,0,0,0,0.1,0L20.6,6.8c0,0-0.1,0-0.1,0
						s-0.1,0-0.1,0C20.4,6.7,20.4,6.7,20.3,6.7C20.3,6.7,20.3,6.7,20.3,6.7"/>
					<path class="st22" d="M20.6,6.8l19.9-2.9c0,0,0,0,0.1,0c0,0,0,0,0.1,0c0,0,0,0,0.1,0c0,0,0,0,0.1,0L21,6.8c0,0-0.1,0-0.1,0
						c0,0-0.1,0-0.1,0S20.7,6.8,20.6,6.8C20.7,6.8,20.7,6.8,20.6,6.8"/>
					<path class="st23" d="M21,6.8l19.8-2.9c0,0,0,0,0.1,0s0,0,0.1,0c0,0,0,0,0.1,0c0,0,0,0,0,0L21.2,6.9c0,0,0,0-0.1,0
						c0,0,0,0-0.1,0C21.1,6.8,21,6.8,21,6.8C21,6.8,21,6.8,21,6.8"/>
					<path class="st24" d="M21.2,6.9L41,3.9c0,0,0,0,0,0c0,0,0,0,0,0c0,0,0,0,0,0c0,0,0,0,0,0c0,0,0,0,0,0c0,0,0,0,0,0c0,0,0,0,0,0
						s0,0,0,0L21.5,7c0,0,0,0-0.1,0c0,0,0,0-0.1,0c0,0,0,0-0.1,0C21.3,6.9,21.3,6.9,21.2,6.9C21.3,6.9,21.3,6.9,21.2,6.9
						C21.3,6.9,21.3,6.9,21.2,6.9C21.2,6.9,21.2,6.9,21.2,6.9C21.2,6.9,21.2,6.9,21.2,6.9"/>
					<path class="st25" d="M21.5,7l19.6-3c0,0,0,0,0.1,0s0,0,0.1,0s0,0,0.1,0s0,0,0.1,0l-19.5,3c0,0-0.1,0-0.1,0c0,0-0.1,0-0.1,0
						C21.7,7,21.6,7,21.5,7C21.6,7,21.6,7,21.5,7"/>
					<path class="st26" d="M21.9,7.1l19.5-3c0,0,0,0,0.1,0c0,0,0,0,0.1,0c0,0,0,0,0.1,0s0,0,0.1,0L22.3,7.3c0,0-0.1,0-0.1-0.1
						c0,0-0.1,0-0.1-0.1C22,7.2,22,7.2,21.9,7.1C21.9,7.2,21.9,7.1,21.9,7.1"/>
					<path class="st27" d="M22.3,7.3l19.4-3.1c0,0,0.1,0,0.1,0.1c0,0,0.1,0.1,0.1,0.1S42,4.5,42,4.5c0,0,0.1,0.1,0.1,0.1
						c0,0,0,0,0.1,0.1s0,0,0.1,0.1c0,0,0,0,0.1,0.1s0,0,0.1,0.1L23.3,8.2c0,0-0.1-0.1-0.1-0.1c0,0-0.1-0.1-0.1-0.1S23,7.9,23,7.9
						c0,0-0.1-0.1-0.1-0.1c0,0-0.1-0.1-0.1-0.1c-0.1,0-0.1-0.1-0.2-0.1c-0.1,0-0.1-0.1-0.2-0.1C22.4,7.4,22.3,7.4,22.3,7.3"/>
					<path class="st26" d="M23.3,8.2l19.2-3.3c0,0,0,0,0,0.1c0,0,0,0,0,0.1c0,0,0,0,0,0.1s0,0,0,0.1L23.5,8.5c0,0,0-0.1-0.1-0.1
						c0,0,0-0.1-0.1-0.1C23.4,8.3,23.3,8.3,23.3,8.2C23.3,8.2,23.3,8.2,23.3,8.2"/>
					<path class="st25" d="M23.5,8.5l19.1-3.4c0,0,0,0,0,0c0,0,0,0,0,0.1c0,0,0,0,0,0.1s0,0,0,0.1l-19,3.5c0,0,0,0,0-0.1
						c0,0,0,0,0-0.1C23.6,8.6,23.6,8.6,23.5,8.5C23.5,8.6,23.5,8.5,23.5,8.5"/>
					<path class="st24" d="M23.7,8.8l19-3.5c0,0,0,0,0,0c0,0,0,0,0,0c0,0,0,0,0,0s0,0,0,0l-19,3.6c0,0,0,0,0-0.1c0,0,0,0,0-0.1
						S23.7,8.9,23.7,8.8C23.7,8.8,23.7,8.8,23.7,8.8"/>
					<path class="st23" d="M23.8,9.1l19-3.6c0,0,0,0,0,0c0,0,0,0,0,0c0,0,0,0,0,0c0,0,0,0,0,0.1l-19,3.6c0,0,0,0,0-0.1
						c0,0,0,0,0-0.1S23.9,9.2,23.8,9.1C23.8,9.1,23.8,9.1,23.8,9.1"/>
					<path class="st22" d="M23.9,9.3l19-3.6l0,0l0,0c0,0,0,0,0,0l0,0c0,0,0,0,0,0.1c0,0,0,0,0,0.1c0,0,0,0,0,0.1c0,0,0,0,0,0.1
						L24.1,9.7c0,0,0-0.1,0-0.1c0,0,0-0.1,0-0.1C24,9.5,24,9.5,23.9,9.3C24,9.4,24,9.4,23.9,9.3L23.9,9.3L23.9,9.3
						C23.9,9.3,23.9,9.3,23.9,9.3C23.9,9.3,23.9,9.3,23.9,9.3"/>
					<path class="st21" d="M24.1,9.7L43,6c0,0,0,0,0,0.1c0,0,0,0.1,0,0.1c0,0,0,0.1,0,0.1c0,0,0,0.1,0,0.1l-18.9,3.9
						c0,0,0-0.1,0-0.1c0,0,0-0.1,0-0.1c0,0,0-0.1,0-0.1C24.1,9.8,24.1,9.7,24.1,9.7"/>
					<path class="st20" d="M24.2,10.1l18.9-3.9c0,0,0,0.1,0,0.1c0,0,0,0.1,0,0.1c0,0,0,0.1,0,0.1c0,0,0,0.1,0,0.1l-18.8,4
						c0,0,0-0.1,0-0.1c0,0,0-0.1,0-0.1c0,0,0-0.1,0-0.1C24.3,10.2,24.3,10.2,24.2,10.1"/>
					<path class="st19" d="M24.4,10.6l18.8-4c0,0,0,0.1,0,0.1c0,0,0,0.1,0,0.1c0,0,0,0.1,0,0.1c0,0,0,0.1,0,0.1l-18.8,4.2
						c0-0.1,0-0.1,0-0.2c0-0.1,0-0.1,0-0.2c0,0,0-0.1,0-0.1C24.4,10.7,24.4,10.7,24.4,10.6"/>
					<path class="st14" d="M24.5,11.2l18.8-4.2c0,0,0,0,0,0.1c0,0,0,0,0,0.1c0,0,0,0,0,0.1c0,0,0,0,0,0.1l-18.7,4.3c0,0,0-0.1,0-0.1
						c0,0,0-0.1,0-0.1C24.6,11.4,24.6,11.4,24.5,11.2C24.5,11.3,24.5,11.3,24.5,11.2"/>
				</g>
			</g>
			<g class="st1">
				<defs>
					<path id="SVGID_9_" class="st1" d="M65.4,59.8L72.6,42c0.3,0,2,0,4.4,0c2.4,0,5.5,0,8.6,0.1c3.1,0,6.2,0,8.6,0.1
						c2.4,0,4.1,0,4.3,0c0,0,0.1,0,0.1,0c0,0,0.1,0,0.1,0s0.1,0,0.1,0c0,0,0.1,0,0.1,0l3.2,18.5c0,0-0.1,0-0.1,0c0,0-0.1,0-0.1,0
						c0,0-0.1,0-0.1,0c0,0-0.1,0-0.1,0c-0.3,0-2.6-0.1-6-0.1c-3.4-0.1-7.7-0.2-12-0.3c-4.3-0.1-8.6-0.2-11.9-0.3
						C68.2,59.9,65.9,59.8,65.4,59.8z"/>
				</defs>
				<clipPath id="SVGID_10_">
					<use xlink:href="#SVGID_9_"  style="overflow:visible;"/>
				</clipPath>
				<g class="st28">
					<path class="st14" d="M65.4,59.8L72.6,42c0.3,0,1.8,0,4.1,0c2.2,0,5.1,0,8.1,0.1c3,0,6,0,8.4,0.1c2.5,0,4.3,0,5,0l3,18.5
						c-0.9,0-3.6-0.1-7-0.2c-3.4-0.1-7.7-0.2-11.8-0.3c-4.1-0.1-8.1-0.2-11.2-0.3C68,59.9,65.8,59.8,65.4,59.8"/>
					<path class="st13" d="M101.1,60.6l-3-18.5c0,0,0.1,0,0.1,0c0,0,0,0,0.1,0c0,0,0,0,0,0c0,0,0,0,0,0c0,0,0.1,0,0.1,0
						c0,0,0.1,0,0.1,0c0,0,0.1,0,0.1,0c0,0,0,0,0.1,0l3.2,18.5c0,0-0.1,0-0.1,0c0,0-0.1,0-0.1,0c0,0-0.1,0-0.1,0c0,0-0.1,0-0.1,0
						c0,0,0,0,0,0s0,0-0.1,0c0,0-0.1,0-0.1,0C101.2,60.6,101.1,60.6,101.1,60.6"/>
					<polyline class="st14" points="101.9,60.6 98.7,42.1 98.7,42.1 98.7,42.1 98.7,42.1 98.7,42.1 101.9,60.6 101.9,60.6 
						101.9,60.6 101.9,60.6 101.9,60.6 					"/>
				</g>
			</g>
			<g class="st1">
				<defs>
					<path id="SVGID_11_" class="st1" d="M99.3,42.6c1.1,6.2,2.3,12.5,3.4,18.7c0-0.1-0.1-0.3-0.1-0.4c0-0.1-0.1-0.2-0.2-0.2
						c-0.1,0-0.1-0.1-0.2-0.1c-0.1,0-0.2,0-0.3,0l-3.2-18.5c0.1,0,0.2,0,0.2,0c0.1,0,0.1,0,0.2,0.1c0,0,0.1,0.1,0.1,0.1
						C99.3,42.4,99.3,42.5,99.3,42.6z"/>
				</defs>
				<clipPath id="SVGID_12_">
					<use xlink:href="#SVGID_11_"  style="overflow:visible;"/>
				</clipPath>
				<g class="st29">
					<path class="st14" d="M101.9,60.6l-3.2-18.5c0,0,0,0,0,0c0,0,0,0,0,0c0,0,0,0,0,0s0,0,0,0l3.2,18.5
						C102,60.6,102,60.6,101.9,60.6C102,60.6,102,60.6,101.9,60.6C102,60.6,102,60.6,101.9,60.6C101.9,60.6,101.9,60.6,101.9,60.6"
						/>
					<path class="st19" d="M102,60.6l-3.2-18.5c0,0,0,0,0,0c0,0,0,0,0,0c0,0,0,0,0,0c0,0,0,0,0,0L102,60.6
						C102.1,60.6,102.1,60.6,102,60.6C102.1,60.6,102.1,60.6,102,60.6C102.1,60.6,102.1,60.6,102,60.6C102,60.6,102,60.6,102,60.6"
						/>
					<path class="st20" d="M102.1,60.6l-3.3-18.5c0,0,0,0,0,0c0,0,0,0,0,0c0,0,0,0,0,0c0,0,0,0,0,0L102.1,60.6
						C102.2,60.6,102.2,60.6,102.1,60.6C102.2,60.6,102.2,60.6,102.1,60.6C102.1,60.6,102.1,60.6,102.1,60.6
						C102.1,60.6,102.1,60.6,102.1,60.6"/>
					<path class="st21" d="M102.2,60.6l-3.3-18.5c0,0,0,0,0,0s0,0,0,0s0,0,0,0c0,0,0,0,0,0L102.2,60.6
						C102.2,60.6,102.2,60.6,102.2,60.6C102.2,60.6,102.2,60.6,102.2,60.6C102.2,60.6,102.2,60.6,102.2,60.6
						C102.2,60.6,102.2,60.6,102.2,60.6"/>
					<path class="st22" d="M102.2,60.6l-3.3-18.5c0,0,0,0,0,0c0,0,0,0,0,0c0,0,0,0,0,0c0,0,0,0,0,0L102.2,60.6
						C102.3,60.7,102.3,60.7,102.2,60.6C102.3,60.7,102.3,60.7,102.2,60.6C102.3,60.6,102.3,60.6,102.2,60.6
						C102.2,60.6,102.2,60.6,102.2,60.6"/>
					<polyline class="st23" points="102.3,60.7 99,42.2 99,42.2 99,42.2 99,42.2 99,42.2 102.3,60.7 102.3,60.7 102.3,60.7 
						102.3,60.7 102.3,60.7 					"/>
					<polyline class="st24" points="102.3,60.7 99,42.2 99,42.2 99,42.2 99,42.2 99,42.2 102.4,60.7 102.4,60.7 102.3,60.7 
						102.3,60.7 102.3,60.7 					"/>
					<polyline class="st25" points="102.4,60.7 99,42.2 99,42.2 99.1,42.2 99.1,42.2 99.1,42.2 102.4,60.7 102.4,60.7 102.4,60.7 
						102.4,60.7 102.4,60.7 					"/>
					<path class="st26" d="M102.4,60.7l-3.3-18.5c0,0,0,0,0,0c0,0,0,0,0,0c0,0,0,0,0,0s0,0,0,0L102.4,60.7
						C102.4,60.7,102.4,60.7,102.4,60.7C102.4,60.7,102.4,60.7,102.4,60.7C102.4,60.7,102.4,60.7,102.4,60.7
						C102.4,60.7,102.4,60.7,102.4,60.7"/>
					<path class="st27" d="M102.5,60.7l-3.4-18.5c0,0,0,0,0,0c0,0,0,0,0,0c0,0,0,0,0,0c0,0,0,0,0,0l3.4,18.6
						C102.6,60.8,102.6,60.8,102.5,60.7C102.5,60.8,102.5,60.8,102.5,60.7C102.5,60.8,102.5,60.8,102.5,60.7
						C102.5,60.7,102.5,60.7,102.5,60.7"/>
					<path class="st26" d="M102.6,60.8l-3.4-18.6c0,0,0,0,0,0c0,0,0,0,0,0c0,0,0,0,0,0s0,0,0,0L102.6,60.8
						C102.6,60.9,102.6,60.9,102.6,60.8C102.6,60.9,102.6,60.9,102.6,60.8C102.6,60.9,102.6,60.8,102.6,60.8
						C102.6,60.8,102.6,60.8,102.6,60.8"/>
					<polyline class="st25" points="102.6,60.9 99.2,42.3 99.2,42.3 99.2,42.3 99.2,42.3 99.2,42.3 102.6,60.9 102.6,60.9 
						102.6,60.9 102.6,60.9 102.6,60.9 					"/>
					<path class="st24" d="M102.6,60.9l-3.4-18.6c0,0,0,0,0,0c0,0,0,0,0,0s0,0,0,0c0,0,0,0,0,0L102.6,60.9
						C102.7,61,102.7,61,102.6,60.9C102.7,61,102.7,61,102.6,60.9C102.7,60.9,102.7,60.9,102.6,60.9
						C102.6,60.9,102.6,60.9,102.6,60.9"/>
					<path class="st23" d="M102.7,61l-3.4-18.6c0,0,0,0,0,0c0,0,0,0,0,0c0,0,0,0,0,0s0,0,0,0L102.7,61C102.7,61,102.7,61,102.7,61
						C102.7,61,102.7,61,102.7,61C102.7,61,102.7,61,102.7,61C102.7,61,102.7,61,102.7,61"/>
					<path class="st22" d="M102.7,61l-3.4-18.6c0,0,0,0,0,0c0,0,0,0,0,0c0,0,0,0,0,0c0,0,0,0,0,0L102.7,61
						C102.7,61.1,102.7,61.1,102.7,61C102.7,61.1,102.7,61.1,102.7,61C102.7,61.1,102.7,61,102.7,61C102.7,61,102.7,61,102.7,61"/>
					<path class="st21" d="M102.7,61.1l-3.4-18.6c0,0,0,0,0,0c0,0,0,0,0,0c0,0,0,0,0,0s0,0,0,0L102.7,61.1
						C102.7,61.1,102.7,61.1,102.7,61.1C102.7,61.1,102.7,61.1,102.7,61.1C102.7,61.1,102.7,61.1,102.7,61.1
						C102.7,61.1,102.7,61.1,102.7,61.1"/>
					<path class="st20" d="M102.7,61.2l-3.4-18.6c0,0,0,0,0,0c0,0,0,0,0,0c0,0,0,0,0,0c0,0,0,0,0,0L102.7,61.2
						C102.8,61.2,102.7,61.2,102.7,61.2C102.7,61.2,102.7,61.2,102.7,61.2C102.7,61.2,102.7,61.2,102.7,61.2
						C102.7,61.2,102.7,61.2,102.7,61.2"/>
					<path class="st19" d="M102.8,61.2l-3.4-18.7c0,0,0,0,0,0c0,0,0,0,0,0c0,0,0,0,0,0c0,0,0,0,0,0L102.8,61.2
						C102.8,61.3,102.8,61.3,102.8,61.2C102.8,61.3,102.8,61.3,102.8,61.2C102.8,61.3,102.8,61.3,102.8,61.2
						C102.8,61.3,102.8,61.2,102.8,61.2"/>
				</g>
			</g>
			<g>
				<polygon class="st9" points="65.8,12.6 73.1,7.9 59.2,32.7 46.9,46.8 				"/>
			</g>
			<g class="st1">
				<defs>
					<path id="SVGID_13_" class="st1" d="M63.8,6c0.3-0.1,0.7-0.3,1.1-0.4c0.2-0.1,0.4-0.1,0.5-0.2c0.3-0.1,0.7-0.2,1-0.3
						c0.3-0.1,0.6-0.2,0.9-0.3c0.1,0,0.3-0.1,0.4-0.1c0.2-0.1,0.6-0.2,0.8-0.3c0.2-0.1,0.5-0.2,0.7-0.3C69.2,4,69.4,4,69.5,4
						c0.2-0.1,0.5-0.2,0.7-0.2c0.2-0.1,0.4-0.2,0.6-0.2c0.1,0,0.2-0.1,0.3-0.1c0.2-0.1,0.4-0.1,0.6-0.2c0.1,0,0.2-0.1,0.4-0.1
						C72.2,3,72.3,3,72.4,3c0.1,0,0.3,0,0.4-0.1c0.1,0,0.3,0,0.4,0l-7.2,2.6c-0.2,0-0.4,0-0.6,0c-0.2,0-0.4,0-0.6,0.1
						c-0.2,0-0.4,0.1-0.6,0.1C64.1,5.8,63.9,5.9,63.8,6z"/>
				</defs>
				<clipPath id="SVGID_14_">
					<use xlink:href="#SVGID_13_"  style="overflow:visible;"/>
				</clipPath>
				<g class="st30">
					<path class="st31" d="M63.8,6l7.9-2.8c0,0,0,0,0,0s0,0,0,0c0,0,0,0,0,0c0,0,0,0,0,0L63.8,6C63.8,5.9,63.8,5.9,63.8,6
						C63.8,5.9,63.8,5.9,63.8,6C63.8,5.9,63.8,5.9,63.8,6C63.8,5.9,63.8,5.9,63.8,6"/>
					<path class="st32" d="M63.8,5.9l7.9-2.7c0,0,0,0,0.1,0c0,0,0,0,0.1,0c0,0,0,0,0.1,0s0,0,0.1,0l-7.8,2.7c0,0-0.1,0-0.1,0
						s-0.1,0-0.1,0C64,5.9,63.9,5.9,63.8,5.9C63.9,5.9,63.9,5.9,63.8,5.9"/>
					<path class="st33" d="M64.1,5.8l7.8-2.7c0,0,0,0,0.1,0c0,0,0,0,0.1,0c0,0,0,0,0.1,0c0,0,0,0,0.1,0l-7.7,2.7c0,0-0.1,0-0.1,0
						s-0.1,0-0.1,0S64.2,5.8,64.1,5.8C64.2,5.8,64.2,5.8,64.1,5.8"/>
					<path class="st34" d="M64.5,5.8L72.2,3c0,0,0,0,0.1,0c0,0,0,0,0.1,0c0,0,0,0,0.1,0c0,0,0,0,0.1,0l-7.6,2.7c0,0-0.1,0-0.1,0
						c0,0-0.1,0-0.1,0C64.6,5.7,64.6,5.7,64.5,5.8C64.5,5.7,64.5,5.7,64.5,5.8"/>
					<path class="st11" d="M64.8,5.7L72.4,3c0,0,0,0,0.1,0c0,0,0,0,0.1,0c0,0,0,0,0.1,0c0,0,0,0,0.1,0l-7.5,2.7c0,0-0.1,0-0.1,0
						c0,0-0.1,0-0.1,0C64.9,5.7,64.9,5.7,64.8,5.7C64.9,5.7,64.8,5.7,64.8,5.7"/>
					<path class="st12" d="M65.2,5.6L72.6,3c0,0,0,0,0.1,0c0,0,0,0,0.1,0c0,0,0,0,0.1,0c0,0,0,0,0.1,0l-7.4,2.7c0,0-0.1,0-0.1,0
						c0,0-0.1,0-0.1,0C65.3,5.6,65.3,5.6,65.2,5.6C65.2,5.6,65.2,5.6,65.2,5.6"/>
					<path class="st13" d="M65.5,5.6l7.4-2.7c0,0,0.1,0,0.1,0c0,0,0.1,0,0.1,0c0,0,0.1,0,0.1,0c0,0,0.1,0,0.1,0L66,5.6
						c0,0-0.1,0-0.1,0s-0.1,0-0.1,0c0,0-0.1,0-0.1,0S65.6,5.6,65.5,5.6"/>
					<path class="st14" d="M66,5.6l7.3-2.6c0,0,0,0,0,0s0,0,0,0c0,0,0,0,0,0c0,0,0,0,0,0L66,5.6C66.1,5.6,66.1,5.6,66,5.6
						C66,5.6,66,5.6,66,5.6C66,5.6,66,5.6,66,5.6C66,5.6,66,5.6,66,5.6"/>
				</g>
			</g>
			<g>
				<polygon class="st35" points="74.2,9.3 79.1,5.5 72.6,42 65.4,59.8 				"/>
			</g>
			<g>
				<polygon class="st16" points="66.1,5.6 73.3,2.9 77.1,2.8 71.5,5.4 				"/>
			</g>
			<g class="st1">
				<defs>
					<path id="SVGID_15_" class="st1" d="M71.5,5.4l5.7-2.6c0.1,0,0.2,0,0.2,0c0.1,0,0.2,0,0.2,0c0.1,0,0.2,0,0.2,0
						c0.1,0,0.1,0,0.2,0.1C78.1,3,78.2,3,78.2,3c0.1,0,0.1,0.1,0.2,0.1c0.1,0,0.1,0.1,0.2,0.1c0.1,0,0.1,0.1,0.2,0.2
						c0,0.1,0.1,0.1,0.1,0.2c0,0.1,0.1,0.1,0.1,0.2C79,3.9,79,4,79.1,4c0,0.1,0,0.2,0.1,0.2c0,0.1,0,0.2,0,0.3c0,0.1,0,0.2,0,0.3
						c0,0.1,0,0.2,0,0.3c0,0.1,0,0.2,0,0.4l-4.9,3.7c0-0.2,0.1-0.3,0.1-0.5c0-0.2,0-0.3,0-0.5c0-0.1,0-0.3,0-0.4c0-0.1,0-0.3,0-0.4
						c0-0.1,0-0.2-0.1-0.3c0-0.1-0.1-0.2-0.1-0.3c0-0.1-0.1-0.2-0.2-0.3c-0.1-0.1-0.1-0.2-0.2-0.2c-0.1-0.1-0.1-0.2-0.2-0.2
						C73.4,6,73.4,6,73.3,5.9c-0.1-0.1-0.2-0.1-0.3-0.2c-0.1,0-0.2-0.1-0.3-0.1c-0.1,0-0.2-0.1-0.3-0.1c-0.1,0-0.2,0-0.3-0.1
						c-0.1,0-0.2,0-0.3,0C71.7,5.4,71.6,5.4,71.5,5.4z"/>
				</defs>
				<clipPath id="SVGID_16_">
					<use xlink:href="#SVGID_15_"  style="overflow:visible;"/>
				</clipPath>
				<g class="st36">
					<path class="st14" d="M71.5,5.4l5.7-2.6c0,0,0,0,0,0s0,0,0,0c0,0,0,0,0,0c0,0,0,0,0,0l-5.6,2.6c0,0,0,0,0,0
						C71.6,5.4,71.6,5.4,71.5,5.4C71.5,5.4,71.5,5.4,71.5,5.4C71.5,5.4,71.5,5.4,71.5,5.4"/>
					<path class="st19" d="M71.6,5.4l5.6-2.6c0,0,0,0,0,0c0,0,0,0,0,0s0,0,0,0s0,0,0,0l-5.6,2.6c0,0,0,0,0,0
						C71.8,5.4,71.7,5.4,71.6,5.4C71.7,5.4,71.7,5.4,71.6,5.4C71.7,5.4,71.6,5.4,71.6,5.4"/>
					<path class="st20" d="M71.8,5.4l5.6-2.6c0,0,0,0,0,0c0,0,0,0,0,0s0,0,0,0c0,0,0,0,0,0L72,5.5c0,0,0,0,0,0
						C71.9,5.5,71.9,5.5,71.8,5.4C71.9,5.5,71.9,5.5,71.8,5.4C71.8,5.4,71.8,5.4,71.8,5.4"/>
					<path class="st21" d="M72,5.5l5.5-2.6c0,0,0,0,0,0c0,0,0,0,0,0c0,0,0,0,0,0c0,0,0,0,0,0l-5.5,2.6c0,0,0,0,0,0
						C72.1,5.5,72.1,5.5,72,5.5C72.1,5.5,72.1,5.5,72,5.5C72,5.5,72,5.5,72,5.5"/>
					<path class="st22" d="M72.2,5.5l5.5-2.6c0,0,0,0,0,0c0,0,0,0,0,0c0,0,0,0,0,0c0,0,0,0,0,0l-5.4,2.6c0,0,0,0,0,0
						C72.3,5.5,72.3,5.5,72.2,5.5C72.3,5.5,72.2,5.5,72.2,5.5C72.2,5.5,72.2,5.5,72.2,5.5"/>
					<path class="st23" d="M72.4,5.5l5.4-2.6c0,0,0,0,0,0c0,0,0,0,0,0s0,0,0,0c0,0,0,0,0,0l-5.4,2.7c0,0,0,0,0,0
						C72.5,5.6,72.5,5.5,72.4,5.5C72.4,5.5,72.4,5.5,72.4,5.5C72.4,5.5,72.4,5.5,72.4,5.5"/>
					<path class="st24" d="M72.5,5.6l5.4-2.7c0,0,0,0,0,0c0,0,0,0,0,0c0,0,0,0,0,0s0,0,0,0l-5.3,2.7c0,0,0,0,0,0
						C72.7,5.6,72.6,5.6,72.5,5.6C72.6,5.6,72.6,5.6,72.5,5.6C72.6,5.6,72.6,5.6,72.5,5.6"/>
					<path class="st25" d="M72.7,5.6L78,2.9c0,0,0,0,0,0c0,0,0,0,0,0c0,0,0,0,0,0s0,0,0,0c0,0,0,0,0,0c0,0,0,0,0,0c0,0,0,0,0,0
						c0,0,0,0,0,0l-5.3,2.7c0,0,0,0,0,0c0,0,0,0,0,0S72.8,5.7,72.7,5.6C72.8,5.6,72.8,5.6,72.7,5.6C72.7,5.6,72.7,5.6,72.7,5.6
						C72.7,5.6,72.7,5.6,72.7,5.6C72.7,5.6,72.7,5.6,72.7,5.6C72.7,5.6,72.7,5.6,72.7,5.6"/>
					<path class="st26" d="M72.9,5.7L78.2,3c0,0,0,0,0,0c0,0,0,0,0,0s0,0,0,0s0,0,0,0l-5.2,2.7c0,0,0,0-0.1,0c0,0,0,0-0.1,0
						C73,5.7,73,5.7,72.9,5.7C72.9,5.7,72.9,5.7,72.9,5.7"/>
					<path class="st27" d="M73.1,5.8l5.2-2.7c0,0,0.1,0,0.1,0.1c0,0,0.1,0.1,0.1,0.1c0,0,0.1,0.1,0.1,0.1c0,0,0.1,0.1,0.1,0.1
						c0,0,0,0,0,0c0,0,0,0,0,0c0,0,0,0,0,0c0,0,0,0,0,0l-5,2.9c0,0,0,0,0,0c0,0,0,0,0,0c0,0,0,0,0,0c0,0,0,0,0,0
						c0-0.1-0.1-0.1-0.1-0.1c0,0-0.1-0.1-0.1-0.1c-0.1,0-0.1-0.1-0.2-0.1C73.2,5.9,73.2,5.8,73.1,5.8"/>
					<path class="st26" d="M73.8,6.4l5-2.9c0,0,0,0,0,0c0,0,0,0,0,0c0,0,0,0,0,0c0,0,0,0,0,0l-5,2.9c0,0,0,0,0,0
						C73.9,6.5,73.9,6.5,73.8,6.4C73.8,6.4,73.8,6.4,73.8,6.4C73.8,6.4,73.8,6.4,73.8,6.4"/>
					<path class="st25" d="M73.9,6.5l5-2.9c0,0,0,0,0,0c0,0,0,0,0,0c0,0,0,0,0,0c0,0,0,0,0,0l-4.9,3c0,0,0,0,0,0S74,6.6,73.9,6.5
						C73.9,6.6,73.9,6.6,73.9,6.5C73.9,6.6,73.9,6.6,73.9,6.5"/>
					<path class="st24" d="M74,6.7l4.9-3c0,0,0,0,0,0c0,0,0,0,0,0s0,0,0,0s0,0,0,0l-4.9,3C74.1,6.8,74,6.8,74,6.7
						C74,6.8,74,6.8,74,6.7C74,6.7,74,6.7,74,6.7C74,6.7,74,6.7,74,6.7"/>
					<path class="st23" d="M74.1,6.8l4.9-3c0,0,0,0,0,0c0,0,0,0,0,0s0,0,0,0c0,0,0,0,0,0l-4.9,3.1C74.1,6.9,74.1,6.9,74.1,6.8
						C74.1,6.9,74.1,6.9,74.1,6.8C74.1,6.9,74.1,6.9,74.1,6.8C74.1,6.8,74.1,6.8,74.1,6.8"/>
					<path class="st22" d="M74.1,6.9L79,3.9c0,0,0,0,0,0s0,0,0,0c0,0,0,0,0,0c0,0,0,0,0,0l-4.9,3.1C74.2,7.1,74.2,7.1,74.1,6.9
						C74.1,7,74.1,7,74.1,6.9C74.1,7,74.1,7,74.1,6.9C74.1,7,74.1,7,74.1,6.9"/>
					<path class="st21" d="M74.2,7.1L79.1,4c0,0,0,0,0,0c0,0,0,0,0,0c0,0,0,0,0,0s0,0,0,0l-4.9,3.1c0,0,0,0,0,0S74.2,7.2,74.2,7.1
						C74.2,7.1,74.2,7.1,74.2,7.1C74.2,7.1,74.2,7.1,74.2,7.1"/>
					<path class="st20" d="M74.2,7.2l4.9-3.1c0,0,0,0,0,0c0,0,0,0,0,0c0,0,0,0,0,0c0,0,0,0,0,0l-4.9,3.2c0,0,0,0,0,0
						C74.2,7.3,74.2,7.3,74.2,7.2C74.2,7.3,74.2,7.3,74.2,7.2C74.2,7.2,74.2,7.2,74.2,7.2"/>
					<path class="st19" d="M74.2,7.4l4.9-3.2c0,0,0,0,0,0c0,0,0,0,0,0c0,0,0,0,0,0c0,0,0,0,0,0l0,0l0,0c0,0,0,0,0,0c0,0,0,0,0,0
						l-4.9,3.2c0,0,0,0,0,0c0,0,0,0,0,0c0,0,0,0,0,0c0,0,0,0,0,0c0,0,0,0,0,0S74.3,7.4,74.2,7.4C74.3,7.4,74.3,7.4,74.2,7.4
						C74.2,7.4,74.2,7.4,74.2,7.4"/>
					<path class="st14" d="M74.3,7.5l4.9-3.2c0,0,0,0,0,0s0,0,0,0c0,0,0,0,0,0c0,0,0,0,0,0l-4.8,3.3C74.3,7.6,74.3,7.6,74.3,7.5
						C74.3,7.6,74.3,7.6,74.3,7.5C74.3,7.6,74.3,7.6,74.3,7.5C74.3,7.5,74.3,7.5,74.3,7.5"/>
					<path class="st13" d="M74.3,7.6l4.8-3.3c0,0,0,0,0,0c0,0,0,0,0,0c0,0,0,0,0,0c0,0,0,0,0,0l-4.8,3.3c0,0,0,0,0,0
						C74.3,7.8,74.3,7.7,74.3,7.6C74.3,7.7,74.3,7.7,74.3,7.6C74.3,7.7,74.3,7.7,74.3,7.6"/>
					<path class="st12" d="M74.3,7.8l4.8-3.3c0,0,0,0,0,0s0,0,0,0c0,0,0,0,0,0c0,0,0,0,0,0L74.3,8c0,0,0,0,0,0
						C74.3,7.9,74.3,7.9,74.3,7.8C74.3,7.9,74.3,7.9,74.3,7.8C74.3,7.8,74.3,7.8,74.3,7.8"/>
					<path class="st11" d="M74.3,8l4.8-3.4c0,0,0,0,0,0c0,0,0,0,0,0c0,0,0,0,0,0c0,0,0,0,0,0l-4.8,3.4c0,0,0,0,0-0.1c0,0,0,0,0-0.1
						S74.3,8.1,74.3,8C74.3,8,74.3,8,74.3,8"/>
					<path class="st34" d="M74.3,8.2l4.8-3.4c0,0,0,0,0,0c0,0,0,0,0,0c0,0,0,0,0,0c0,0,0,0,0,0l-4.8,3.5c0,0,0,0,0-0.1
						c0,0,0,0,0-0.1C74.3,8.3,74.3,8.3,74.3,8.2C74.3,8.3,74.3,8.2,74.3,8.2"/>
					<path class="st33" d="M74.3,8.5L79.2,5c0,0,0,0,0,0.1c0,0,0,0,0,0.1c0,0,0,0,0,0.1c0,0,0,0,0,0.1l-4.8,3.6c0,0,0-0.1,0-0.1
						c0,0,0-0.1,0-0.1C74.3,8.6,74.3,8.6,74.3,8.5C74.3,8.5,74.3,8.5,74.3,8.5"/>
					<path class="st32" d="M74.3,8.8l4.8-3.6c0,0,0,0,0,0.1c0,0,0,0,0,0.1c0,0,0,0,0,0.1c0,0,0,0,0,0.1l-4.9,3.7c0,0,0-0.1,0-0.1
						c0,0,0-0.1,0-0.1C74.3,9,74.3,8.9,74.3,8.8C74.3,8.9,74.3,8.8,74.3,8.8"/>
					<path class="st31" d="M74.2,9.2l4.9-3.7c0,0,0,0,0,0c0,0,0,0,0,0c0,0,0,0,0,0c0,0,0,0,0,0L74.2,9.2C74.2,9.3,74.2,9.3,74.2,9.2
						C74.2,9.3,74.2,9.2,74.2,9.2C74.2,9.2,74.2,9.2,74.2,9.2C74.2,9.2,74.2,9.2,74.2,9.2"/>
				</g>
			</g>
			<g>
				<path class="st37" d="M101.9,60.6c0.2,0,0.3,0,0.5,0.1c0.1,0.1,0.2,0.1,0.3,0.3c0.1,0.1,0.1,0.3,0.1,0.6c0,0.3,0,0.6,0,1.1
					c0,0.3,0,0.7,0,1.1c0,0.4,0,0.8,0,1.1c0,0.4,0,0.7,0,1.1c0,0.3,0,0.7,0,0.9c0,0.2,0,0.3-0.1,0.5c-0.1,0.1-0.2,0.3-0.3,0.4
					c-0.1,0.1-0.3,0.2-0.4,0.2c-0.2,0-0.4,0.1-0.6,0.1c-0.8,0-2-0.1-3.4-0.1c-1.4,0-3.1-0.1-5-0.2c-1.8-0.1-3.9-0.1-6-0.2
					c-2.1-0.1-4.3-0.1-6.4-0.2c-2.7-0.1-5.4-0.2-8-0.3c-2.5-0.1-4.9-0.2-6.9-0.2c-2-0.1-3.7-0.1-4.8-0.2c-1.2,0-1.9-0.1-1.9-0.1
					c-0.1,0-0.2,0-0.4-0.1c-0.2,0-0.5-0.1-0.7-0.2c-0.2-0.1-0.5-0.2-0.6-0.4c-0.1-0.2-0.2-0.5-0.1-0.8l2-12.3l-15.2-0.5l-6.8,12.3
					c-0.1,0.1-0.1,0.2-0.2,0.3c-0.1,0.1-0.2,0.2-0.3,0.2c-0.1,0.1-0.2,0.1-0.3,0.2c-0.1,0.1-0.3,0.1-0.4,0.1c-0.1,0-0.3,0.1-0.5,0.1
					c-0.2,0-0.4,0.1-0.6,0.1c-0.2,0-0.4,0-0.7,0c-0.2,0-0.5,0-0.8,0c-0.3,0-0.5,0-0.8,0c-0.2,0-0.5,0-0.7-0.1
					c-0.2,0-0.4-0.1-0.5-0.1c-0.2,0-0.3-0.1-0.4-0.2c-0.1-0.1-0.2-0.1-0.3-0.2c-0.1-0.1-0.2-0.1-0.2-0.2c-0.1-0.1-0.1-0.1-0.2-0.2
					c0-0.1-0.1-0.2-0.1-0.2l-12.2-51l-5.8,50.3c0,0,0,0.1,0,0.1c0,0,0,0.1-0.1,0.1c0,0,0,0.1-0.1,0.1c0,0-0.1,0.1-0.1,0.1
					c0,0-0.1,0.1-0.1,0.1c0,0-0.1,0.1-0.1,0.1c0,0-0.1,0.1-0.2,0.1c-0.1,0-0.1,0.1-0.2,0.1c-0.1,0-0.1,0-0.2,0.1
					c-0.1,0-0.2,0-0.2,0.1c-0.1,0-0.2,0-0.3,0.1c-0.1,0-0.2,0-0.3,0c-0.1,0-0.2,0-0.3,0c-0.1,0-0.3,0-0.4,0c-0.1,0-0.3,0-0.4,0
					c-0.2,0-0.3,0-0.5,0c-0.2,0-0.3,0-0.5,0c-0.1,0-0.3,0-0.4,0c-0.1,0-0.3,0-0.4,0c-0.1,0-0.2,0-0.3-0.1c-0.1,0-0.2,0-0.3-0.1
					c-0.1,0-0.2,0-0.3-0.1c-0.1,0-0.2,0-0.2-0.1c-0.1,0-0.1-0.1-0.2-0.1c-0.1,0-0.1-0.1-0.2-0.1c0,0-0.1-0.1-0.1-0.1
					c0,0-0.1-0.1-0.1-0.1c0,0-0.1-0.1-0.1-0.1c0,0,0-0.1,0-0.1c0,0,0-0.1,0-0.1c0,0,0-0.1,0-0.1c0,0,0-0.1,0-0.1l5.6-52.9
					c0-0.2,0-0.3,0.1-0.5c0-0.1,0.1-0.3,0.1-0.4c0-0.1,0.1-0.3,0.1-0.4c0-0.1,0.1-0.3,0.2-0.4c0.1-0.1,0.1-0.2,0.2-0.3
					C11.9,8.4,12,8.3,12,8.2c0.1-0.1,0.1-0.2,0.2-0.3c0.1-0.1,0.2-0.2,0.2-0.2c0.1-0.1,0.2-0.1,0.2-0.2c0.1-0.1,0.2-0.1,0.3-0.2
					c0.1-0.1,0.2-0.1,0.3-0.2c0.1,0,0.2-0.1,0.3-0.1c0.1,0,0.2-0.1,0.3-0.1c0.1,0,0.2-0.1,0.3-0.1c0.1,0,0.2,0,0.3,0
					c0.1,0,0.2,0,0.3,0l4.3-0.1c0.2,0,0.4,0,0.7,0c0.2,0,0.4,0,0.6,0c0.2,0,0.4,0,0.6,0.1c0.2,0,0.3,0.1,0.5,0.1
					c0.2,0,0.3,0.1,0.5,0.2c0.1,0.1,0.3,0.1,0.4,0.2c0.1,0.1,0.3,0.2,0.4,0.2c0.1,0.1,0.2,0.2,0.4,0.3C23,7.9,23.1,8,23.2,8.1
					c0.1,0.1,0.2,0.2,0.3,0.4c0.1,0.1,0.2,0.3,0.3,0.4c0.1,0.1,0.2,0.3,0.2,0.5c0.1,0.2,0.1,0.3,0.2,0.5c0.1,0.2,0.1,0.4,0.2,0.5
					c0.1,0.2,0.1,0.4,0.2,0.6c0,0.2,0.1,0.4,0.1,0.6L35,54.4L59,11c0.1-0.2,0.2-0.4,0.3-0.6c0.1-0.2,0.2-0.4,0.3-0.6
					c0.1-0.2,0.2-0.4,0.3-0.6c0.1-0.2,0.2-0.3,0.3-0.5c0.1-0.2,0.2-0.3,0.3-0.5c0.1-0.2,0.2-0.3,0.4-0.4c0.1-0.1,0.3-0.3,0.4-0.4
					c0.1-0.1,0.3-0.2,0.4-0.4c0.1-0.1,0.3-0.2,0.4-0.3c0.1-0.1,0.3-0.2,0.5-0.3c0.2-0.1,0.3-0.2,0.5-0.2C63.4,6.1,63.5,6,63.7,6
					c0.2-0.1,0.4-0.1,0.5-0.2c0.2,0,0.4-0.1,0.6-0.1c0.2,0,0.4-0.1,0.6-0.1c0.2,0,0.4,0,0.6,0l5.4-0.1c0.1,0,0.2,0,0.3,0
					c0.1,0,0.2,0,0.3,0c0.1,0,0.2,0,0.3,0.1c0.1,0,0.2,0.1,0.3,0.1c0.1,0,0.2,0.1,0.3,0.1c0.1,0,0.2,0.1,0.3,0.2
					C73.4,6,73.4,6,73.5,6.1c0.1,0.1,0.1,0.1,0.2,0.2c0.1,0.1,0.1,0.2,0.2,0.2C74,6.7,74,6.7,74.1,6.8c0,0.1,0.1,0.2,0.1,0.3
					c0,0.1,0.1,0.2,0.1,0.3c0,0.1,0,0.2,0,0.4c0,0.1,0,0.3,0,0.4c0,0.1,0,0.3,0,0.5c0,0.2,0,0.3-0.1,0.5l-8.8,50.5
					c0.4,0,2.7,0.1,6,0.1c3.3,0.1,7.6,0.2,11.9,0.3c4.3,0.1,8.7,0.2,12,0.3c3.4,0.1,5.7,0.1,6,0.1c0,0,0.1,0,0.1,0c0,0,0.1,0,0.1,0
					c0,0,0.1,0,0.1,0C101.8,60.6,101.9,60.6,101.9,60.6z M46.9,46.8l13.2,0.4l5.8-34.6l-0.1,0L46.9,46.8"/>
			</g>
		</g>
	</g>
	<path class="st38" d="M43.7,52.7l-6.5,12.5c-0.2,0.4-0.7,0.8-1.3,1s-1.6,0.3-2.8,0.3c-1.2,0-2.1-0.1-2.6-0.4
		c-0.5-0.2-0.8-0.5-0.8-0.9L17.8,12.9h-0.1l-6.1,51.2c-0.1,0.2-0.2,0.4-0.3,0.6c-0.2,0.2-0.4,0.3-0.7,0.5c-0.3,0.1-0.7,0.2-1.2,0.3
		s-1.1,0.1-1.9,0.1c-0.7,0-1.3,0-1.8-0.1s-0.9-0.2-1.1-0.3c-0.3-0.1-0.4-0.3-0.5-0.5C4,64.5,4,64.3,4,64.1l7.2-53.6
		c0.1-0.6,0.3-1.2,0.6-1.7c0.3-0.5,0.6-0.9,1-1.2S13.6,7.2,14,7c0.4-0.1,0.8-0.2,1.3-0.2l4-0.6c1,0,1.8,0.1,2.4,0.3
		c0.7,0.2,1.2,0.5,1.6,0.9c0.4,0.4,0.8,0.9,1,1.6c0.2,0.6,0.4,1.4,0.5,2.3l9.8,43.3L59,11.1c0.5-0.9,1.1-2.5,2.8-4.3
		c0.5-0.5,1.7-1.2,4.6-1.4h5.2c0.5,0,0.9,0.1,1.2,0.2c0.4,0.1,0.7,0.4,0.9,0.7s0.4,0.7,0.5,1.1c0.1,0.5,0.1,1-0.1,1.7l-8.9,50.6
		c0,0,34.3,0.7,35.3,0.7c1.1,0,2.2,0,2.1,1.4c0,0.7,0.1,2.9,0.1,4c0,1.3-0.2,2.2-2.2,2.2c-8.8-0.2-39.7-1.4-40-1.4
		c-2.5,0-4,0-3.6-2.5l2.2-11.2L43.7,52.7z M47.1,46.8L60.7,47l5.1-32.4L46.5,47.5"/>
</g>
</svg>
