<?xml version="1.0" encoding="UTF-8" standalone="no"?>
<!DOCTYPE svg PUBLIC "-//W3C//DTD SVG 1.1//EN"
 "http://www.w3.org/Graphics/SVG/1.1/DTD/svg11.dtd">
<!-- Generated by graphviz version 2.40.1 (20161225.0304)
 -->
<!-- Title: dependencies Pages: 1 -->
<svg width="2429pt" height="284pt"
 viewBox="0.00 0.00 2429.00 284.00" xmlns="http://www.w3.org/2000/svg" xmlns:xlink="http://www.w3.org/1999/xlink">
<g id="graph0" class="graph" transform="scale(1 1) rotate(0) translate(4 280)">
<title>dependencies</title>
<polygon fill="#ffffff" stroke="transparent" points="-4,4 -4,-280 2425,-280 2425,4 -4,4"/>
<text text-anchor="start" x="1189.5091" y="-42.4" font-family="sans-serif" font-weight="bold" font-size="14.00" fill="#000000">Legend</text>
<polygon fill="#ffffb3" stroke="transparent" points="976.5,-10 976.5,-30 996.5,-30 996.5,-10 976.5,-10"/>
<text text-anchor="start" x="1000.129" y="-15.4" font-family="sans-serif" font-size="14.00" fill="#000000"> &#160;Declarations</text>
<polygon fill="#8dd3c7" stroke="transparent" points="1089.5,-10 1089.5,-30 1109.5,-30 1109.5,-10 1089.5,-10"/>
<text text-anchor="start" x="1113.2251" y="-15.4" font-family="sans-serif" font-size="14.00" fill="#000000"> &#160;Module</text>
<polygon fill="#80b1d3" stroke="transparent" points="1175.5,-10 1175.5,-30 1195.5,-30 1195.5,-10 1175.5,-10"/>
<text text-anchor="start" x="1199.2812" y="-15.4" font-family="sans-serif" font-size="14.00" fill="#000000"> &#160;Bootstrap</text>
<polygon fill="#fdb462" stroke="transparent" points="1272.5,-10 1272.5,-30 1292.5,-30 1292.5,-10 1272.5,-10"/>
<text text-anchor="start" x="1296.1732" y="-15.4" font-family="sans-serif" font-size="14.00" fill="#000000"> &#160;Providers</text>
<polygon fill="#fb8072" stroke="transparent" points="1368.5,-10 1368.5,-30 1388.5,-30 1388.5,-10 1368.5,-10"/>
<text text-anchor="start" x="1392.2258" y="-15.4" font-family="sans-serif" font-size="14.00" fill="#000000"> &#160;Exports</text>
<g id="clust1" class="cluster">
<title>cluster_AppModule</title>
<polygon fill="none" stroke="#000000" stroke-dasharray="1,5" points="8,-70 8,-268 2413,-268 2413,-70 8,-70"/>
</g>
<g id="clust2" class="cluster">
<title>cluster_AppModule_declarations</title>
<polygon fill="none" stroke="#000000" points="658,-78 658,-130 2405,-130 2405,-78 658,-78"/>
</g>
<g id="clust18" class="cluster">
<title>cluster_AppModule_bootstrap</title>
<polygon fill="none" stroke="#000000" points="1181,-208 1181,-260 1305,-260 1305,-208 1181,-208"/>
</g>
<g id="clust19" class="cluster">
<title>cluster_AppModule_providers</title>
<polygon fill="none" stroke="#000000" points="16,-78 16,-130 650,-130 650,-78 16,-78"/>
</g>
<!-- AboutComponent -->
<g id="node1" class="node">
<title>AboutComponent</title>
<polygon fill="#ffffb3" stroke="#000000" points="2397.3301,-122 2280.6699,-122 2280.6699,-86 2397.3301,-86 2397.3301,-122"/>
<text text-anchor="middle" x="2339" y="-99.8" font-family="Times,serif" font-size="14.00" fill="#000000">AboutComponent</text>
</g>
<!-- AppModule -->
<g id="node14" class="node">
<title>AppModule</title>
<polygon fill="#8dd3c7" stroke="#000000" points="1284.6571,-187 1281.6571,-191 1260.6571,-191 1257.6571,-187 1201.3429,-187 1201.3429,-151 1284.6571,-151 1284.6571,-187"/>
<text text-anchor="middle" x="1243" y="-164.8" font-family="Times,serif" font-size="14.00" fill="#000000">AppModule</text>
</g>
<!-- AboutComponent&#45;&gt;AppModule -->
<g id="edge1" class="edge">
<title>AboutComponent&#45;&gt;AppModule</title>
<path fill="none" stroke="#000000" d="M2339,-122.3228C2339,-145.6602 2339,-183 2339,-183 2339,-183 1294.959,-183 1294.959,-183"/>
<polygon fill="#000000" stroke="#000000" points="1294.959,-179.5001 1284.959,-183 1294.9589,-186.5001 1294.959,-179.5001"/>
</g>
<!-- AccountsComponent -->
<g id="node2" class="node">
<title>AccountsComponent</title>
<polygon fill="#ffffb3" stroke="#000000" points="2263.2036,-122 2128.7964,-122 2128.7964,-86 2263.2036,-86 2263.2036,-122"/>
<text text-anchor="middle" x="2196" y="-99.8" font-family="Times,serif" font-size="14.00" fill="#000000">AccountsComponent</text>
</g>
<!-- AccountsComponent&#45;&gt;AppModule -->
<g id="edge2" class="edge">
<title>AccountsComponent&#45;&gt;AppModule</title>
<path fill="none" stroke="#000000" d="M2196,-122.1554C2196,-144.3519 2196,-179 2196,-179 2196,-179 1294.8699,-179 1294.8699,-179"/>
<polygon fill="#000000" stroke="#000000" points="1294.87,-175.5001 1284.8699,-179 1294.8699,-182.5001 1294.87,-175.5001"/>
</g>
<!-- AppComponent -->
<g id="node3" class="node">
<title>AppComponent</title>
<polygon fill="#ffffb3" stroke="#000000" points="2110.9399,-122 2005.0601,-122 2005.0601,-86 2110.9399,-86 2110.9399,-122"/>
<text text-anchor="middle" x="2058" y="-99.8" font-family="Times,serif" font-size="14.00" fill="#000000">AppComponent</text>
</g>
<!-- AppComponent&#45;&gt;AppModule -->
<g id="edge3" class="edge">
<title>AppComponent&#45;&gt;AppModule</title>
<path fill="none" stroke="#000000" d="M2058,-122.2843C2058,-143.3211 2058,-175 2058,-175 2058,-175 1294.8187,-175 1294.8187,-175"/>
<polygon fill="#000000" stroke="#000000" points="1294.8187,-171.5001 1284.8187,-175 1294.8186,-178.5001 1294.8187,-171.5001"/>
</g>
<!-- ConsultComponent -->
<g id="node4" class="node">
<title>ConsultComponent</title>
<polygon fill="#ffffb3" stroke="#000000" points="1987.3948,-122 1862.6052,-122 1862.6052,-86 1987.3948,-86 1987.3948,-122"/>
<text text-anchor="middle" x="1925" y="-99.8" font-family="Times,serif" font-size="14.00" fill="#000000">ConsultComponent</text>
</g>
<!-- ConsultComponent&#45;&gt;AppModule -->
<g id="edge4" class="edge">
<title>ConsultComponent&#45;&gt;AppModule</title>
<path fill="none" stroke="#000000" d="M1925,-122.308C1925,-142.1455 1925,-171 1925,-171 1925,-171 1294.8912,-171 1294.8912,-171"/>
<polygon fill="#000000" stroke="#000000" points="1294.8912,-167.5001 1284.8912,-171 1294.8911,-174.5001 1294.8912,-167.5001"/>
</g>
<!-- ContactComponent -->
<g id="node5" class="node">
<title>ContactComponent</title>
<polygon fill="#ffffb3" stroke="#000000" points="1844.3795,-122 1719.6205,-122 1719.6205,-86 1844.3795,-86 1844.3795,-122"/>
<text text-anchor="middle" x="1782" y="-99.8" font-family="Times,serif" font-size="14.00" fill="#000000">ContactComponent</text>
</g>
<!-- ContactComponent&#45;&gt;AppModule -->
<g id="edge5" class="edge">
<title>ContactComponent&#45;&gt;AppModule</title>
<path fill="none" stroke="#000000" d="M1782,-122.2222C1782,-140.8285 1782,-167 1782,-167 1782,-167 1294.8459,-167 1294.8459,-167"/>
<polygon fill="#000000" stroke="#000000" points="1294.846,-163.5001 1284.8459,-167 1294.8459,-170.5001 1294.846,-163.5001"/>
</g>
<!-- FooterComponent -->
<g id="node6" class="node">
<title>FooterComponent</title>
<polygon fill="#ffffb3" stroke="#000000" points="1701.8809,-122 1584.1191,-122 1584.1191,-86 1701.8809,-86 1701.8809,-122"/>
<text text-anchor="middle" x="1643" y="-99.8" font-family="Times,serif" font-size="14.00" fill="#000000">FooterComponent</text>
</g>
<!-- FooterComponent&#45;&gt;AppModule -->
<g id="edge6" class="edge">
<title>FooterComponent&#45;&gt;AppModule</title>
<path fill="none" stroke="#000000" d="M1643,-122.0225C1643,-139.3734 1643,-163 1643,-163 1643,-163 1294.675,-163 1294.675,-163"/>
<polygon fill="#000000" stroke="#000000" points="1294.6751,-159.5001 1284.675,-163 1294.675,-166.5001 1294.6751,-159.5001"/>
</g>
<!-- HomeComponent -->
<g id="node7" class="node">
<title>HomeComponent</title>
<polygon fill="#ffffb3" stroke="#000000" points="1565.5451,-122 1450.4549,-122 1450.4549,-86 1565.5451,-86 1565.5451,-122"/>
<text text-anchor="middle" x="1508" y="-99.8" font-family="Times,serif" font-size="14.00" fill="#000000">HomeComponent</text>
</g>
<!-- HomeComponent&#45;&gt;AppModule -->
<g id="edge7" class="edge">
<title>HomeComponent&#45;&gt;AppModule</title>
<path fill="none" stroke="#000000" d="M1508,-122.0091C1508,-138.0494 1508,-159 1508,-159 1508,-159 1294.6978,-159 1294.6978,-159"/>
<polygon fill="#000000" stroke="#000000" points="1294.6978,-155.5001 1284.6978,-159 1294.6977,-162.5001 1294.6978,-155.5001"/>
</g>
<!-- LegalsComponent -->
<g id="node8" class="node">
<title>LegalsComponent</title>
<polygon fill="#ffffb3" stroke="#000000" points="1432.1499,-122 1313.8501,-122 1313.8501,-86 1432.1499,-86 1432.1499,-122"/>
<text text-anchor="middle" x="1373" y="-99.8" font-family="Times,serif" font-size="14.00" fill="#000000">LegalsComponent</text>
</g>
<!-- LegalsComponent&#45;&gt;AppModule -->
<g id="edge8" class="edge">
<title>LegalsComponent&#45;&gt;AppModule</title>
<path fill="none" stroke="#000000" d="M1373,-122.1243C1373,-136.7832 1373,-155 1373,-155 1373,-155 1294.8484,-155 1294.8484,-155"/>
<polygon fill="#000000" stroke="#000000" points="1294.8484,-151.5001 1284.8484,-155 1294.8484,-158.5001 1294.8484,-151.5001"/>
</g>
<!-- NavComponent -->
<g id="node9" class="node">
<title>NavComponent</title>
<polygon fill="#ffffb3" stroke="#000000" points="1295.1542,-122 1190.8458,-122 1190.8458,-86 1295.1542,-86 1295.1542,-122"/>
<text text-anchor="middle" x="1243" y="-99.8" font-family="Times,serif" font-size="14.00" fill="#000000">NavComponent</text>
</g>
<!-- NavComponent&#45;&gt;AppModule -->
<g id="edge9" class="edge">
<title>NavComponent&#45;&gt;AppModule</title>
<path fill="none" stroke="#000000" d="M1243,-122.1061C1243,-122.1061 1243,-140.991 1243,-140.991"/>
<polygon fill="#000000" stroke="#000000" points="1239.5001,-140.9909 1243,-150.991 1246.5001,-140.991 1239.5001,-140.9909"/>
</g>
<!-- ServicesComponent -->
<g id="node10" class="node">
<title>ServicesComponent</title>
<polygon fill="#ffffb3" stroke="#000000" points="1172.2548,-122 1043.7452,-122 1043.7452,-86 1172.2548,-86 1172.2548,-122"/>
<text text-anchor="middle" x="1108" y="-99.8" font-family="Times,serif" font-size="14.00" fill="#000000">ServicesComponent</text>
</g>
<!-- ServicesComponent&#45;&gt;AppModule -->
<g id="edge10" class="edge">
<title>ServicesComponent&#45;&gt;AppModule</title>
<path fill="none" stroke="#000000" d="M1108,-122.1243C1108,-136.7832 1108,-155 1108,-155 1108,-155 1191.0252,-155 1191.0252,-155"/>
<polygon fill="#000000" stroke="#000000" points="1191.0252,-158.5001 1201.0252,-155 1191.0251,-151.5001 1191.0252,-158.5001"/>
</g>
<!-- SocialComponent -->
<g id="node11" class="node">
<title>SocialComponent</title>
<polygon fill="#ffffb3" stroke="#000000" points="1025.3259,-122 908.6741,-122 908.6741,-86 1025.3259,-86 1025.3259,-122"/>
<text text-anchor="middle" x="967" y="-99.8" font-family="Times,serif" font-size="14.00" fill="#000000">SocialComponent</text>
</g>
<!-- SocialComponent&#45;&gt;AppModule -->
<g id="edge11" class="edge">
<title>SocialComponent&#45;&gt;AppModule</title>
<path fill="none" stroke="#000000" d="M967,-122.0091C967,-138.0494 967,-159 967,-159 967,-159 1191.0815,-159 1191.0815,-159"/>
<polygon fill="#000000" stroke="#000000" points="1191.0816,-162.5001 1201.0815,-159 1191.0815,-155.5001 1191.0816,-162.5001"/>
</g>
<!-- TaxComponent -->
<g id="node12" class="node">
<title>TaxComponent</title>
<polygon fill="#ffffb3" stroke="#000000" points="890.5996,-122 787.4004,-122 787.4004,-86 890.5996,-86 890.5996,-122"/>
<text text-anchor="middle" x="839" y="-99.8" font-family="Times,serif" font-size="14.00" fill="#000000">TaxComponent</text>
</g>
<!-- TaxComponent&#45;&gt;AppModule -->
<g id="edge12" class="edge">
<title>TaxComponent&#45;&gt;AppModule</title>
<path fill="none" stroke="#000000" d="M839,-122.0225C839,-139.3734 839,-163 839,-163 839,-163 1191.2866,-163 1191.2866,-163"/>
<polygon fill="#000000" stroke="#000000" points="1191.2866,-166.5001 1201.2866,-163 1191.2865,-159.5001 1191.2866,-166.5001"/>
</g>
<!-- TopComponent -->
<g id="node13" class="node">
<title>TopComponent</title>
<polygon fill="#ffffb3" stroke="#000000" points="769.8851,-122 666.1149,-122 666.1149,-86 769.8851,-86 769.8851,-122"/>
<text text-anchor="middle" x="718" y="-99.8" font-family="Times,serif" font-size="14.00" fill="#000000">TopComponent</text>
</g>
<!-- TopComponent&#45;&gt;AppModule -->
<g id="edge13" class="edge">
<title>TopComponent&#45;&gt;AppModule</title>
<path fill="none" stroke="#000000" d="M718,-122.2222C718,-140.8285 718,-167 718,-167 718,-167 1190.9245,-167 1190.9245,-167"/>
<polygon fill="#000000" stroke="#000000" points="1190.9245,-170.5001 1200.9245,-167 1190.9245,-163.5001 1190.9245,-170.5001"/>
</g>
<!-- AppComponent  -->
<g id="node15" class="node">
<title>AppComponent </title>
<polygon fill="#80b1d3" stroke="#000000" points="1297.439,-252 1188.561,-252 1188.561,-216 1297.439,-216 1297.439,-252"/>
<text text-anchor="middle" x="1243" y="-229.8" font-family="Times,serif" font-size="14.00" fill="#000000">AppComponent </text>
</g>
<!-- AppModule&#45;&gt;AppComponent  -->
<g id="edge14" class="edge">
<title>AppModule&#45;&gt;AppComponent </title>
<path fill="none" stroke="#000000" stroke-dasharray="1,5" d="M1243,-187.1061C1243,-187.1061 1243,-205.991 1243,-205.991"/>
<polygon fill="#000000" stroke="#000000" points="1239.5001,-205.9909 1243,-215.991 1246.5001,-205.991 1239.5001,-205.9909"/>
</g>
<!-- ContactService -->
<g id="node16" class="node">
<title>ContactService</title>
<ellipse fill="#fdb462" stroke="#000000" cx="572" cy="-104" rx="70.0596" ry="18"/>
<text text-anchor="middle" x="572" y="-99.8" font-family="Times,serif" font-size="14.00" fill="#000000">ContactService</text>
</g>
<!-- ContactService&#45;&gt;AppModule -->
<g id="edge15" class="edge">
<title>ContactService&#45;&gt;AppModule</title>
<path fill="none" stroke="#000000" d="M572,-122.308C572,-142.1455 572,-171 572,-171 572,-171 1191.2795,-171 1191.2795,-171"/>
<polygon fill="#000000" stroke="#000000" points="1191.2795,-174.5001 1201.2795,-171 1191.2794,-167.5001 1191.2795,-174.5001"/>
</g>
<!-- DivPositionsService -->
<g id="node17" class="node">
<title>DivPositionsService</title>
<ellipse fill="#fdb462" stroke="#000000" cx="394" cy="-104" rx="89.7826" ry="18"/>
<text text-anchor="middle" x="394" y="-99.8" font-family="Times,serif" font-size="14.00" fill="#000000">DivPositionsService</text>
</g>
<!-- DivPositionsService&#45;&gt;AppModule -->
<g id="edge16" class="edge">
<title>DivPositionsService&#45;&gt;AppModule</title>
<path fill="none" stroke="#000000" d="M394,-122.2843C394,-143.3211 394,-175 394,-175 394,-175 1191.1875,-175 1191.1875,-175"/>
<polygon fill="#000000" stroke="#000000" points="1191.1876,-178.5001 1201.1875,-175 1191.1875,-171.5001 1191.1876,-178.5001"/>
</g>
<!-- SocialService -->
<g id="node18" class="node">
<title>SocialService</title>
<ellipse fill="#fdb462" stroke="#000000" cx="222" cy="-104" rx="64.2591" ry="18"/>
<text text-anchor="middle" x="222" y="-99.8" font-family="Times,serif" font-size="14.00" fill="#000000">SocialService</text>
</g>
<!-- SocialService&#45;&gt;AppModule -->
<g id="edge17" class="edge">
<title>SocialService&#45;&gt;AppModule</title>
<path fill="none" stroke="#000000" d="M222,-122.1554C222,-144.3519 222,-179 222,-179 222,-179 1191.0721,-179 1191.0721,-179"/>
<polygon fill="#000000" stroke="#000000" points="1191.0722,-182.5001 1201.0721,-179 1191.0721,-175.5001 1191.0722,-182.5001"/>
</g>
<!-- WindowRef -->
<g id="node19" class="node">
<title>WindowRef</title>
<ellipse fill="#fdb462" stroke="#000000" cx="82" cy="-104" rx="58.4687" ry="18"/>
<text text-anchor="middle" x="82" y="-99.8" font-family="Times,serif" font-size="14.00" fill="#000000">WindowRef</text>
</g>
<!-- WindowRef&#45;&gt;AppModule -->
<g id="edge18" class="edge">
<title>WindowRef&#45;&gt;AppModule</title>
<path fill="none" stroke="#000000" d="M82,-122.3228C82,-145.6602 82,-183 82,-183 82,-183 1191.3371,-183 1191.3371,-183"/>
<polygon fill="#000000" stroke="#000000" points="1191.3371,-186.5001 1201.3371,-183 1191.3371,-179.5001 1191.3371,-186.5001"/>
</g>
</g>
</svg>
