<?xml version="1.0" encoding="utf-8"?>
<!-- Generator: Adobe Illustrator 21.0.0, SVG Export Plug-In . SVG Version: 6.00 Build 0)  -->
<svg version="1.1" id="Layer_1" xmlns="http://www.w3.org/2000/svg" xmlns:xlink="http://www.w3.org/1999/xlink" x="0px" y="0px"
	 viewBox="0 0 1742.4 134.3" style="enable-background:new 0 0 1742.4 134.3;" xml:space="preserve">
<style type="text/css">
	.st0{enable-background:new    ;}
	.st1{fill:#FFFFFF;}
</style>
<title>home-bg-text</title>
<g class="st0">
	<path class="st1" d="M7.4,19.7h25.3l11.1,48.5l12.5-48.5h24.6v78.5H64.7V32.4l-16,65.7H36.1L21.4,32.4v65.7h-14V19.7z"/>
	<path class="st1" d="M109.8,58.5L94.4,57c0.7-5.8,3.2-10.3,7.4-13.5c4.2-3.1,9.6-4.7,16-4.7c5.4,0,9.8,1,13.1,3.1
		c3.3,2.1,5.4,4.5,6.2,7.3c0.9,2.8,1.3,7,1.3,12.8v23.2c0,7.2,0.3,11.5,1,12.9h-15.1c-0.5-1.6-0.8-4.5-0.8-8.9
		c-3.6,6.7-8.9,10.1-15.9,10.1c-4.5,0-8.2-1.4-11-4.1c-2.8-2.7-4.2-6.6-4.2-11.8c0-6.5,2.1-11.5,6.4-15c4.3-3.5,12.1-5.7,23.4-6.4
		v-2.2c0-3.9-0.4-6.6-1.2-8c-0.8-1.5-2.3-2.2-4.6-2.2C112.5,49.6,110.2,52.6,109.8,58.5z M122.3,70.4c-4.7,0.5-8.1,1.6-10.1,3.1
		s-3,4.2-3,7.8c0,4.9,1.8,7.3,5.4,7.3c2,0,3.7-1.1,5.3-3.3c1.6-2.2,2.4-6.2,2.4-12.1V70.4z"/>
	<path class="st1" d="M151.1,19.7h14.7V37l-8.4,15.4h-6.3l6.5-15.4h-6.5V19.7z"/>
	<path class="st1" d="M179.9,19.7h17.3v63.8h25.3v14.7h-42.6V19.7z"/>
	<path class="st1" d="M273.3,71.8h-30.4V75c0,5.2,0.7,8.7,2.1,10.4c1.4,1.8,3.3,2.6,5.6,2.6c4.9,0,7.7-3.3,8.3-9.9l14.4,0.9
		c-2.6,13.5-10.2,20.2-23,20.2c-7.9,0-13.9-2.7-18-8c-4.1-5.3-6.1-12.5-6.1-21.4c0-10.1,2.2-17.8,6.5-23.1c4.3-5.3,10.2-8,17.5-8
		c6.6,0,12.1,2.3,16.5,7C271.1,50.7,273.3,59.3,273.3,71.8z M258,62.4c0-0.7,0.1-1.2,0.1-1.6c0-7.5-2.5-11.2-7.6-11.2
		c-5,0-7.5,4.3-7.5,12.8H258z"/>
	<path class="st1" d="M327.5,69.1c0,20.2-7.8,30.2-23.5,30.2c-15.7,0-23.6-10.1-23.6-30.2c0-20.1,7.9-30.2,23.6-30.2
		C319.6,38.9,327.5,49,327.5,69.1z M310.8,69.1c0-7.4-0.5-12.4-1.5-15c-1-2.6-2.8-3.9-5.3-3.9c-2.4,0-4.2,1.2-5.3,3.7
		c-1.1,2.5-1.6,7.6-1.6,15.2c0,7.1,0.5,12,1.4,14.8c0.9,2.8,2.7,4.1,5.5,4.1c2.6,0,4.4-1.4,5.4-4.1
		C310.3,81.2,310.8,76.3,310.8,69.1z"/>
	<path class="st1" d="M337,40.1h15.4V48c2.7-6.1,7.5-9.1,14.5-9.1c3.8,0,6.9,0.9,9.4,2.6c2.5,1.7,4.1,3.9,4.7,6.5
		c0.7,2.6,1,6.7,1,12.1v38.1h-16.2V60.1c0-3.9-0.5-6.3-1.5-7.2c-1-0.9-2.3-1.4-4-1.4c-2.9,0-4.8,0.9-5.8,2.7
		c-0.9,1.8-1.4,5.1-1.4,10v34H337V40.1z"/>
	<path class="st1" d="M430.4,19.7h17.4l22.4,78.5h-17.6l-3.9-16.2h-22.1l-3.9,16.2h-15.9L430.4,19.7z M445.4,68.5l-7.9-32.2
		l-7.6,32.2H445.4z"/>
	<path class="st1" d="M518.7,61.5L503.6,62c-0.2-3.6-0.8-6.3-1.7-8.1c-0.9-1.8-2.5-2.7-4.7-2.7c-5.4,0-8.2,5.7-8.2,17.1
		c0,6.6,0.7,11.3,2,13.9c1.3,2.6,3.3,4,5.9,4c4.1,0,6.3-3.6,6.7-10.8l15.1,1c-1.3,15.3-8.9,22.9-22.7,22.9c-7.5,0-13.2-2.5-17.1-7.6
		c-4-5-5.9-12.5-5.9-22.5c0-9.9,2.1-17.4,6.2-22.6c4.2-5.2,10-7.8,17.5-7.8C510.1,38.9,517.5,46.4,518.7,61.5z"/>
	<path class="st1" d="M570.9,61.5L555.8,62c-0.2-3.6-0.8-6.3-1.7-8.1c-0.9-1.8-2.5-2.7-4.7-2.7c-5.4,0-8.2,5.7-8.2,17.1
		c0,6.6,0.7,11.3,2,13.9c1.3,2.6,3.3,4,5.9,4c4.1,0,6.3-3.6,6.7-10.8l15.1,1c-1.3,15.3-8.9,22.9-22.7,22.9c-7.5,0-13.2-2.5-17.1-7.6
		c-4-5-5.9-12.5-5.9-22.5c0-9.9,2.1-17.4,6.2-22.6c4.2-5.2,10-7.8,17.5-7.8C562.3,38.9,569.7,46.4,570.9,61.5z"/>
	<path class="st1" d="M624.3,69.1c0,20.2-7.8,30.2-23.5,30.2c-15.7,0-23.6-10.1-23.6-30.2c0-20.1,7.9-30.2,23.6-30.2
		C616.5,38.9,624.3,49,624.3,69.1z M607.6,69.1c0-7.4-0.5-12.4-1.5-15c-1-2.6-2.8-3.9-5.3-3.9c-2.4,0-4.2,1.2-5.3,3.7
		c-1.1,2.5-1.6,7.6-1.6,15.2c0,7.1,0.5,12,1.4,14.8c0.9,2.8,2.7,4.1,5.5,4.1c2.6,0,4.4-1.4,5.4-4.1
		C607.1,81.2,607.6,76.3,607.6,69.1z"/>
	<path class="st1" d="M633,40.1h16.2v37.3c0,3.8,0.3,6.3,1,7.5c0.7,1.3,2.2,1.9,4.5,1.9c2.1,0,3.7-0.5,4.8-1.6c1.1-1,1.8-2.5,2-4.3
		c0.2-1.8,0.3-5.6,0.3-11.3V40.1h16.2v58.1h-15.2v-7.9c-2.3,3.9-4.6,6.5-6.9,7.5c-2.3,1.1-5,1.6-8.1,1.6c-4.2,0-7.4-0.9-9.6-2.6
		c-2.2-1.7-3.7-3.9-4.3-6.6c-0.7-2.6-1-6.8-1-12.4V40.1z"/>
	<path class="st1" d="M690,40.1h15.4V48c2.7-6.1,7.5-9.1,14.5-9.1c3.8,0,6.9,0.9,9.4,2.6c2.5,1.7,4.1,3.9,4.7,6.5
		c0.7,2.6,1,6.7,1,12.1v38.1h-16.2V60.1c0-3.9-0.5-6.3-1.5-7.2c-1-0.9-2.3-1.4-4-1.4c-2.9,0-4.8,0.9-5.8,2.7
		c-0.9,1.8-1.4,5.1-1.4,10v34H690V40.1z"/>
</g>
<g class="st0">
	<path class="st1" d="M748.6,22.3l15.8-0.5v18.3h10.7v12.8h-10.7v21.3c0,3.9,0.1,6.5,0.3,7.7c0.2,1.2,0.7,2.1,1.7,2.9
		c1,0.8,2.6,1.2,4.9,1.2c1.2,0,2.8,0,4.6-0.1v12.3c-3.6,0.8-6.9,1.2-9.9,1.2c-4.9,0-8.7-0.9-11.3-2.8c-2.6-1.9-4.3-4.2-5-7.1
		c-0.7-2.8-1.1-7.3-1.1-13.5V52.8h-6.4V40.1h6.4V22.3z"/>
</g>
<g class="st0">
	<path class="st1" d="M798.9,58.5L783.5,57c0.7-5.8,3.2-10.3,7.4-13.5c4.2-3.1,9.6-4.7,16-4.7c5.4,0,9.8,1,13.1,3.1
		c3.3,2.1,5.4,4.5,6.2,7.3c0.9,2.8,1.3,7,1.3,12.8v23.2c0,7.2,0.3,11.5,1,12.9h-15.1c-0.5-1.6-0.8-4.5-0.8-8.9
		c-3.6,6.7-8.9,10.1-15.9,10.1c-4.5,0-8.2-1.4-11-4.1c-2.8-2.7-4.2-6.6-4.2-11.8c0-6.5,2.1-11.5,6.4-15c4.3-3.5,12.1-5.7,23.4-6.4
		v-2.2c0-3.9-0.4-6.6-1.2-8c-0.8-1.5-2.3-2.2-4.6-2.2C801.6,49.6,799.3,52.6,798.9,58.5z M811.4,70.4c-4.7,0.5-8.1,1.6-10.1,3.1
		s-3,4.2-3,7.8c0,4.9,1.8,7.3,5.4,7.3c2,0,3.7-1.1,5.3-3.3c1.6-2.2,2.4-6.2,2.4-12.1V70.4z"/>
	<path class="st1" d="M839.5,40.1h15.4V48c2.7-6.1,7.5-9.1,14.5-9.1c3.8,0,6.9,0.9,9.4,2.6c2.5,1.7,4.1,3.9,4.7,6.5
		c0.7,2.6,1,6.7,1,12.1v38.1h-16.2V60.1c0-3.9-0.5-6.3-1.5-7.2c-1-0.9-2.3-1.4-4-1.4c-2.9,0-4.8,0.9-5.8,2.7
		c-0.9,1.8-1.4,5.1-1.4,10v34h-16.2V40.1z"/>
	<path class="st1" d="M939.1,61.5L924,62c-0.2-3.6-0.8-6.3-1.7-8.1c-0.9-1.8-2.5-2.7-4.7-2.7c-5.4,0-8.2,5.7-8.2,17.1
		c0,6.6,0.7,11.3,2,13.9c1.3,2.6,3.3,4,5.9,4c4.1,0,6.3-3.6,6.7-10.8l15.1,1c-1.3,15.3-8.9,22.9-22.7,22.9c-7.5,0-13.2-2.5-17.1-7.6
		c-4-5-5.9-12.5-5.9-22.5c0-9.9,2.1-17.4,6.2-22.6s10-7.8,17.5-7.8C930.5,38.9,937.9,46.4,939.1,61.5z"/>
	<path class="st1" d="M940.3,40.1h16.2l7.8,35.4l7.6-35.4h14l-17.5,59c-1.7,5.6-3.1,9.6-4.3,11.8c-1.2,2.3-3,4.1-5.3,5.6
		c-2.4,1.5-5.4,2.2-9.1,2.2c-2.3,0-4.6-0.3-6.9-0.9V105c1.6,0.2,3.1,0.3,4.5,0.3c3.1,0,5.3-0.5,6.5-1.5c1.2-1,2.3-3.3,3.3-6.7
		L940.3,40.1z"/>
	<path class="st1" d="M1061.4,36.7l-14.3,5.5c-2-6.5-5.8-9.7-11.2-9.7c-2.5,0-4.5,0.7-6,2.2c-1.5,1.4-2.2,3.1-2.2,5
		c0,2.2,0.9,4,2.6,5.3c1.7,1.3,5.4,3.1,11,5.2c5.1,1.9,9,3.7,11.9,5.6c2.9,1.8,5.2,4.3,7,7.5c1.8,3.2,2.7,6.8,2.7,11
		c0,7.3-2.5,13.3-7.6,18c-5,4.7-11.8,7-20.3,7c-14.2,0-23.3-7.2-27.3-21.6l15.1-4.3c1.8,7.9,6,11.8,12.6,11.8c3,0,5.4-0.8,7.3-2.3
		s2.8-3.6,2.8-6.1c0-1.9-0.7-3.6-2-5.1c-1.3-1.5-4.3-3.1-9-4.8c-6-2.1-10.5-4.1-13.5-5.8c-3-1.7-5.4-4.2-7.3-7.5s-2.9-6.9-2.9-11.1
		c0-7.1,2.3-12.8,6.8-17.3c4.5-4.5,10.6-6.8,18-6.8C1049.6,18.5,1058.1,24.6,1061.4,36.7z"/>
	<path class="st1" d="M1116.9,71.8h-30.4V75c0,5.2,0.7,8.7,2.1,10.4c1.4,1.8,3.3,2.6,5.6,2.6c4.9,0,7.7-3.3,8.3-9.9l14.4,0.9
		c-2.6,13.5-10.2,20.2-23,20.2c-7.9,0-13.9-2.7-18-8c-4.1-5.3-6.1-12.5-6.1-21.4c0-10.1,2.2-17.8,6.5-23.1c4.3-5.3,10.2-8,17.5-8
		c6.6,0,12.1,2.3,16.5,7C1114.7,50.7,1116.9,59.3,1116.9,71.8z M1101.6,62.4c0-0.7,0.1-1.2,0.1-1.6c0-7.5-2.5-11.2-7.6-11.2
		c-5,0-7.5,4.3-7.5,12.8H1101.6z"/>
</g>
<g class="st0">
	<path class="st1" d="M1126.4,40.1h14.3v14c2.6-9.9,7.1-14.8,13.7-14.8c0.8,0,1.7,0.1,2.8,0.3v15.8c-1.2-0.2-2.1-0.2-2.7-0.2
		c-7.9,0-11.8,6-11.8,17.9v25h-16.2V40.1z"/>
</g>
<g class="st0">
	<path class="st1" d="M1159.5,40.1h15.6l8,34.2l8.1-34.2h13.5l-15.9,58.1h-12.8L1159.5,40.1z"/>
	<path class="st1" d="M1225.2,35.3h-16.4v-16h16.4V35.3z M1208.8,40.1h16.2v58.1h-16.2V40.1z"/>
	<path class="st1" d="M1280.3,61.5l-15.1,0.6c-0.2-3.6-0.8-6.3-1.7-8.1c-0.9-1.8-2.5-2.7-4.7-2.7c-5.4,0-8.2,5.7-8.2,17.1
		c0,6.6,0.7,11.3,2,13.9c1.3,2.6,3.3,4,5.9,4c4.1,0,6.3-3.6,6.7-10.8l15.1,1c-1.3,15.3-8.9,22.9-22.7,22.9c-7.5,0-13.2-2.5-17.1-7.6
		c-4-5-5.9-12.5-5.9-22.5c0-9.9,2.1-17.4,6.2-22.6s10-7.8,17.5-7.8C1271.8,38.9,1279.1,46.4,1280.3,61.5z"/>
	<path class="st1" d="M1333.8,71.8h-30.4V75c0,5.2,0.7,8.7,2.1,10.4c1.4,1.8,3.3,2.6,5.6,2.6c4.9,0,7.7-3.3,8.3-9.9l14.4,0.9
		c-2.6,13.5-10.2,20.2-23,20.2c-7.9,0-13.9-2.7-18-8c-4.1-5.3-6.1-12.5-6.1-21.4c0-10.1,2.2-17.8,6.5-23.1c4.3-5.3,10.2-8,17.5-8
		c6.6,0,12.1,2.3,16.5,7C1331.6,50.7,1333.8,59.3,1333.8,71.8z M1318.5,62.4c0-0.7,0.1-1.2,0.1-1.6c0-7.5-2.5-11.2-7.6-11.2
		c-5,0-7.5,4.3-7.5,12.8H1318.5z"/>
	<path class="st1" d="M1381.6,54.1l-11.6,3.5c-1.5-5.3-4.4-7.9-8.5-7.9c-3.4,0-5.1,1.7-5.1,5.1c0,1.9,0.6,3.4,1.9,4.4
		c1.3,1,3.9,2.2,7.8,3.6c4.4,1.6,7.7,3,9.8,4.1s3.8,3,5.2,5.4c1.4,2.4,2.1,5.1,2.1,8.3c0,5.4-1.9,9.9-5.8,13.5
		c-3.9,3.6-9.3,5.5-16.2,5.5c-13.1,0-20.3-5.8-21.7-17.3l12.9-2.1c1.1,5.8,4.1,8.7,9.1,8.7c4.3,0,6.4-1.8,6.4-5.4
		c0-1.9-0.6-3.4-1.9-4.4s-3.7-2.1-7.4-3.2c-6.7-2.1-11.3-4.7-13.7-7.8c-2.5-3-3.7-6.5-3.7-10.5c0-5.6,2-10.1,5.9-13.5
		c3.9-3.4,8.8-5.1,14.8-5.1C1372.2,38.9,1378.8,43.9,1381.6,54.1z"/>
	<path class="st1" d="M1414.8,19.7h17.3v63.8h25.3v14.7h-42.6V19.7z"/>
	<path class="st1" d="M1479.8,35.3h-16.4v-16h16.4V35.3z M1463.5,40.1h16.2v58.1h-16.2V40.1z"/>
	<path class="st1" d="M1491.6,40.1h15.4V48c2.8-6.1,7.5-9.1,14.1-9.1c6.9,0,11.1,3,12.5,9.1c2.6-6.1,7.3-9.1,14.1-9.1
		c3.8,0,6.8,0.7,9.1,2.1c2.2,1.4,3.8,3.3,4.7,5.7c0.9,2.4,1.3,6.9,1.3,13.5v38h-16.2V61.9c0-4.3-0.3-7.1-0.9-8.5c-0.6-1.3-2-2-4.1-2
		c-2.5,0-4.2,0.9-4.9,2.6c-0.8,1.7-1.1,5.1-1.1,10.3v33.8h-16.2V61.4c0-4.1-0.3-6.8-0.9-8.1c-0.6-1.2-1.9-1.8-4.1-1.8
		c-2.6,0-4.3,0.9-5.2,2.7c-0.9,1.8-1.3,5.2-1.3,10.2v33.8h-16.2V40.1z"/>
	<path class="st1" d="M1590.1,35.3h-16.4v-16h16.4V35.3z M1573.8,40.1h16.2v58.1h-16.2V40.1z"/>
	<path class="st1" d="M1604.3,22.3l15.8-0.5v18.3h10.7v12.8h-10.7v21.3c0,3.9,0.1,6.5,0.3,7.7c0.2,1.2,0.7,2.1,1.7,2.9
		c1,0.8,2.6,1.2,4.9,1.2c1.2,0,2.8,0,4.6-0.1v12.3c-3.6,0.8-6.9,1.2-9.9,1.2c-4.9,0-8.7-0.9-11.3-2.8s-4.3-4.2-5-7.1
		c-0.7-2.8-1.1-7.3-1.1-13.5V52.8h-6.4V40.1h6.4V22.3z"/>
	<path class="st1" d="M1682.7,71.8h-30.4V75c0,5.2,0.7,8.7,2.1,10.4c1.4,1.8,3.3,2.6,5.6,2.6c4.9,0,7.7-3.3,8.3-9.9l14.4,0.9
		c-2.6,13.5-10.2,20.2-23,20.2c-7.9,0-13.9-2.7-18-8c-4.1-5.3-6.1-12.5-6.1-21.4c0-10.1,2.2-17.8,6.5-23.1c4.3-5.3,10.2-8,17.5-8
		c6.6,0,12.1,2.3,16.5,7C1680.5,50.7,1682.7,59.3,1682.7,71.8z M1667.4,62.4c0-0.7,0.1-1.2,0.1-1.6c0-7.5-2.5-11.2-7.6-11.2
		c-5,0-7.5,4.3-7.5,12.8H1667.4z"/>
	<path class="st1" d="M1720.6,19.7h15.9v78.5h-15.1v-9.6c-2.5,6.9-6.9,10.4-13.2,10.4c-6.2,0-10.9-2.7-13.9-8.2s-4.6-12.6-4.6-21.4
		c0-10.1,1.8-17.6,5.3-22.6s8.2-7.5,14.1-7.5c5.4,0,9.3,2.1,11.6,6.2V19.7z M1720.6,64.4c0-5.7-0.6-9.5-1.8-11.5
		c-1.2-1.9-3-2.9-5.3-2.9c-2.7,0-4.6,1.3-5.6,4c-1,2.7-1.5,8.2-1.5,16.7c0,6.3,0.5,10.7,1.6,13.2s2.8,3.8,5.3,3.8
		c2.1,0,3.8-0.9,5.2-2.6c1.4-1.7,2.1-5.2,2.1-10.5V64.4z"/>
</g>
</svg>
