<?xml version="1.0" encoding="UTF-8" standalone="no"?>
<!DOCTYPE svg PUBLIC "-//W3C//DTD SVG 1.1//EN"
 "http://www.w3.org/Graphics/SVG/1.1/DTD/svg11.dtd">
<!-- Generated by graphviz version 2.40.1 (20161225.0304)
 -->
<!-- Title: dependencies Pages: 1 -->
<svg width="2729pt" height="284pt"
 viewBox="0.00 0.00 2729.00 284.00" xmlns="http://www.w3.org/2000/svg" xmlns:xlink="http://www.w3.org/1999/xlink">
<g id="graph0" class="graph" transform="scale(1 1) rotate(0) translate(4 280)">
<title>dependencies</title>
<polygon fill="#ffffff" stroke="transparent" points="-4,4 -4,-280 2725,-280 2725,4 -4,4"/>
<text text-anchor="start" x="1339.5091" y="-42.4" font-family="sans-serif" font-weight="bold" font-size="14.00" fill="#000000">Legend</text>
<polygon fill="#ffffb3" stroke="transparent" points="1126.5,-10 1126.5,-30 1146.5,-30 1146.5,-10 1126.5,-10"/>
<text text-anchor="start" x="1150.129" y="-15.4" font-family="sans-serif" font-size="14.00" fill="#000000"> &#160;Declarations</text>
<polygon fill="#8dd3c7" stroke="transparent" points="1239.5,-10 1239.5,-30 1259.5,-30 1259.5,-10 1239.5,-10"/>
<text text-anchor="start" x="1263.2251" y="-15.4" font-family="sans-serif" font-size="14.00" fill="#000000"> &#160;Module</text>
<polygon fill="#80b1d3" stroke="transparent" points="1325.5,-10 1325.5,-30 1345.5,-30 1345.5,-10 1325.5,-10"/>
<text text-anchor="start" x="1349.2812" y="-15.4" font-family="sans-serif" font-size="14.00" fill="#000000"> &#160;Bootstrap</text>
<polygon fill="#fdb462" stroke="transparent" points="1422.5,-10 1422.5,-30 1442.5,-30 1442.5,-10 1422.5,-10"/>
<text text-anchor="start" x="1446.1732" y="-15.4" font-family="sans-serif" font-size="14.00" fill="#000000"> &#160;Providers</text>
<polygon fill="#fb8072" stroke="transparent" points="1518.5,-10 1518.5,-30 1538.5,-30 1538.5,-10 1518.5,-10"/>
<text text-anchor="start" x="1542.2258" y="-15.4" font-family="sans-serif" font-size="14.00" fill="#000000"> &#160;Exports</text>
<g id="clust1" class="cluster">
<title>cluster_AppModule</title>
<polygon fill="none" stroke="#000000" stroke-dasharray="1,5" points="8,-70 8,-268 2413,-268 2413,-70 8,-70"/>
</g>
<g id="clust2" class="cluster">
<title>cluster_AppModule_declarations</title>
<polygon fill="none" stroke="#000000" points="658,-78 658,-130 2405,-130 2405,-78 658,-78"/>
</g>
<g id="clust18" class="cluster">
<title>cluster_AppModule_bootstrap</title>
<polygon fill="none" stroke="#000000" points="2281,-208 2281,-260 2405,-260 2405,-208 2281,-208"/>
</g>
<g id="clust19" class="cluster">
<title>cluster_AppModule_providers</title>
<polygon fill="none" stroke="#000000" points="16,-78 16,-130 650,-130 650,-78 16,-78"/>
</g>
<g id="clust20" class="cluster">
<title>cluster_BrowserAppModule</title>
<polygon fill="none" stroke="#000000" stroke-dasharray="1,5" points="2421,-208 2421,-260 2569,-260 2569,-208 2421,-208"/>
</g>
<g id="clust26" class="cluster">
<title>cluster_ServerAppModule</title>
<polygon fill="none" stroke="#000000" stroke-dasharray="1,5" points="2577,-208 2577,-260 2713,-260 2713,-208 2577,-208"/>
</g>
<!-- AboutComponent -->
<g id="node1" class="node">
<title>AboutComponent</title>
<polygon fill="#ffffb3" stroke="#000000" points="2397.3301,-122 2280.6699,-122 2280.6699,-86 2397.3301,-86 2397.3301,-122"/>
<text text-anchor="middle" x="2339" y="-99.8" font-family="Times,serif" font-size="14.00" fill="#000000">AboutComponent</text>
</g>
<!-- AppModule -->
<g id="node14" class="node">
<title>AppModule</title>
<polygon fill="#8dd3c7" stroke="#000000" points="1481.6571,-187 1478.6571,-191 1457.6571,-191 1454.6571,-187 1398.3429,-187 1398.3429,-151 1481.6571,-151 1481.6571,-187"/>
<text text-anchor="middle" x="1440" y="-164.8" font-family="Times,serif" font-size="14.00" fill="#000000">AppModule</text>
</g>
<!-- AboutComponent&#45;&gt;AppModule -->
<g id="edge1" class="edge">
<title>AboutComponent&#45;&gt;AppModule</title>
<path fill="none" stroke="#000000" d="M2284.6829,-122.2843C2284.6829,-143.3211 2284.6829,-175 2284.6829,-175 2284.6829,-175 1491.888,-175 1491.888,-175"/>
<polygon fill="#000000" stroke="#000000" points="1491.888,-171.5001 1481.888,-175 1491.8879,-178.5001 1491.888,-171.5001"/>
</g>
<!-- AccountsComponent -->
<g id="node2" class="node">
<title>AccountsComponent</title>
<polygon fill="#ffffb3" stroke="#000000" points="2263.2036,-122 2128.7964,-122 2128.7964,-86 2263.2036,-86 2263.2036,-122"/>
<text text-anchor="middle" x="2196" y="-99.8" font-family="Times,serif" font-size="14.00" fill="#000000">AccountsComponent</text>
</g>
<!-- AccountsComponent&#45;&gt;AppModule -->
<g id="edge2" class="edge">
<title>AccountsComponent&#45;&gt;AppModule</title>
<path fill="none" stroke="#000000" d="M2196,-122.308C2196,-142.1455 2196,-171 2196,-171 2196,-171 1491.7227,-171 1491.7227,-171"/>
<polygon fill="#000000" stroke="#000000" points="1491.7227,-167.5001 1481.7227,-171 1491.7227,-174.5001 1491.7227,-167.5001"/>
</g>
<!-- AppComponent -->
<g id="node3" class="node">
<title>AppComponent</title>
<polygon fill="#ffffb3" stroke="#000000" points="2110.9399,-122 2005.0601,-122 2005.0601,-86 2110.9399,-86 2110.9399,-122"/>
<text text-anchor="middle" x="2058" y="-99.8" font-family="Times,serif" font-size="14.00" fill="#000000">AppComponent</text>
</g>
<!-- AppComponent&#45;&gt;AppModule -->
<g id="edge3" class="edge">
<title>AppComponent&#45;&gt;AppModule</title>
<path fill="none" stroke="#000000" d="M2058,-122.2222C2058,-140.8285 2058,-167 2058,-167 2058,-167 1491.9918,-167 1491.9918,-167"/>
<polygon fill="#000000" stroke="#000000" points="1491.9918,-163.5001 1481.9918,-167 1491.9918,-170.5001 1491.9918,-163.5001"/>
</g>
<!-- ConsultComponent -->
<g id="node4" class="node">
<title>ConsultComponent</title>
<polygon fill="#ffffb3" stroke="#000000" points="1987.3948,-122 1862.6052,-122 1862.6052,-86 1987.3948,-86 1987.3948,-122"/>
<text text-anchor="middle" x="1925" y="-99.8" font-family="Times,serif" font-size="14.00" fill="#000000">ConsultComponent</text>
</g>
<!-- ConsultComponent&#45;&gt;AppModule -->
<g id="edge4" class="edge">
<title>ConsultComponent&#45;&gt;AppModule</title>
<path fill="none" stroke="#000000" d="M1925,-122.0225C1925,-139.3734 1925,-163 1925,-163 1925,-163 1491.7706,-163 1491.7706,-163"/>
<polygon fill="#000000" stroke="#000000" points="1491.7706,-159.5001 1481.7706,-163 1491.7706,-166.5001 1491.7706,-159.5001"/>
</g>
<!-- ContactComponent -->
<g id="node5" class="node">
<title>ContactComponent</title>
<polygon fill="#ffffb3" stroke="#000000" points="1844.3795,-122 1719.6205,-122 1719.6205,-86 1844.3795,-86 1844.3795,-122"/>
<text text-anchor="middle" x="1782" y="-99.8" font-family="Times,serif" font-size="14.00" fill="#000000">ContactComponent</text>
</g>
<!-- ContactComponent&#45;&gt;AppModule -->
<g id="edge5" class="edge">
<title>ContactComponent&#45;&gt;AppModule</title>
<path fill="none" stroke="#000000" d="M1782,-122.0091C1782,-138.0494 1782,-159 1782,-159 1782,-159 1491.9359,-159 1491.9359,-159"/>
<polygon fill="#000000" stroke="#000000" points="1491.9359,-155.5001 1481.9359,-159 1491.9359,-162.5001 1491.9359,-155.5001"/>
</g>
<!-- FooterComponent -->
<g id="node6" class="node">
<title>FooterComponent</title>
<polygon fill="#ffffb3" stroke="#000000" points="1701.8809,-122 1584.1191,-122 1584.1191,-86 1701.8809,-86 1701.8809,-122"/>
<text text-anchor="middle" x="1643" y="-99.8" font-family="Times,serif" font-size="14.00" fill="#000000">FooterComponent</text>
</g>
<!-- FooterComponent&#45;&gt;AppModule -->
<g id="edge6" class="edge">
<title>FooterComponent&#45;&gt;AppModule</title>
<path fill="none" stroke="#000000" d="M1643,-122.1243C1643,-136.7832 1643,-155 1643,-155 1643,-155 1492.0617,-155 1492.0617,-155"/>
<polygon fill="#000000" stroke="#000000" points="1492.0618,-151.5001 1482.0617,-155 1492.0617,-158.5001 1492.0618,-151.5001"/>
</g>
<!-- HomeComponent -->
<g id="node7" class="node">
<title>HomeComponent</title>
<polygon fill="#ffffb3" stroke="#000000" points="1565.5451,-122 1450.4549,-122 1450.4549,-86 1565.5451,-86 1565.5451,-122"/>
<text text-anchor="middle" x="1508" y="-99.8" font-family="Times,serif" font-size="14.00" fill="#000000">HomeComponent</text>
</g>
<!-- HomeComponent&#45;&gt;AppModule -->
<g id="edge7" class="edge">
<title>HomeComponent&#45;&gt;AppModule</title>
<path fill="none" stroke="#000000" d="M1466.028,-122.1061C1466.028,-122.1061 1466.028,-140.991 1466.028,-140.991"/>
<polygon fill="#000000" stroke="#000000" points="1462.5281,-140.9909 1466.028,-150.991 1469.5281,-140.991 1462.5281,-140.9909"/>
</g>
<!-- LegalsComponent -->
<g id="node8" class="node">
<title>LegalsComponent</title>
<polygon fill="#ffffb3" stroke="#000000" points="1432.1499,-122 1313.8501,-122 1313.8501,-86 1432.1499,-86 1432.1499,-122"/>
<text text-anchor="middle" x="1373" y="-99.8" font-family="Times,serif" font-size="14.00" fill="#000000">LegalsComponent</text>
</g>
<!-- LegalsComponent&#45;&gt;AppModule -->
<g id="edge8" class="edge">
<title>LegalsComponent&#45;&gt;AppModule</title>
<path fill="none" stroke="#000000" d="M1415.2483,-122.1061C1415.2483,-122.1061 1415.2483,-140.991 1415.2483,-140.991"/>
<polygon fill="#000000" stroke="#000000" points="1411.7483,-140.9909 1415.2483,-150.991 1418.7483,-140.991 1411.7483,-140.9909"/>
</g>
<!-- NavComponent -->
<g id="node9" class="node">
<title>NavComponent</title>
<polygon fill="#ffffb3" stroke="#000000" points="1295.1542,-122 1190.8458,-122 1190.8458,-86 1295.1542,-86 1295.1542,-122"/>
<text text-anchor="middle" x="1243" y="-99.8" font-family="Times,serif" font-size="14.00" fill="#000000">NavComponent</text>
</g>
<!-- NavComponent&#45;&gt;AppModule -->
<g id="edge9" class="edge">
<title>NavComponent&#45;&gt;AppModule</title>
<path fill="none" stroke="#000000" d="M1243,-122.1243C1243,-136.7832 1243,-155 1243,-155 1243,-155 1388.2214,-155 1388.2214,-155"/>
<polygon fill="#000000" stroke="#000000" points="1388.2214,-158.5001 1398.2214,-155 1388.2213,-151.5001 1388.2214,-158.5001"/>
</g>
<!-- ServicesComponent -->
<g id="node10" class="node">
<title>ServicesComponent</title>
<polygon fill="#ffffb3" stroke="#000000" points="1172.2548,-122 1043.7452,-122 1043.7452,-86 1172.2548,-86 1172.2548,-122"/>
<text text-anchor="middle" x="1108" y="-99.8" font-family="Times,serif" font-size="14.00" fill="#000000">ServicesComponent</text>
</g>
<!-- ServicesComponent&#45;&gt;AppModule -->
<g id="edge10" class="edge">
<title>ServicesComponent&#45;&gt;AppModule</title>
<path fill="none" stroke="#000000" d="M1108,-122.0091C1108,-138.0494 1108,-159 1108,-159 1108,-159 1388.2881,-159 1388.2881,-159"/>
<polygon fill="#000000" stroke="#000000" points="1388.2882,-162.5001 1398.2881,-159 1388.2881,-155.5001 1388.2882,-162.5001"/>
</g>
<!-- SocialComponent -->
<g id="node11" class="node">
<title>SocialComponent</title>
<polygon fill="#ffffb3" stroke="#000000" points="1025.3259,-122 908.6741,-122 908.6741,-86 1025.3259,-86 1025.3259,-122"/>
<text text-anchor="middle" x="967" y="-99.8" font-family="Times,serif" font-size="14.00" fill="#000000">SocialComponent</text>
</g>
<!-- SocialComponent&#45;&gt;AppModule -->
<g id="edge11" class="edge">
<title>SocialComponent&#45;&gt;AppModule</title>
<path fill="none" stroke="#000000" d="M967,-122.0336C967,-139.0597 967,-162 967,-162 967,-162 1388.0244,-162 1388.0244,-162"/>
<polygon fill="#000000" stroke="#000000" points="1388.0244,-165.5001 1398.0244,-162 1388.0244,-158.5001 1388.0244,-165.5001"/>
</g>
<!-- TaxComponent -->
<g id="node12" class="node">
<title>TaxComponent</title>
<polygon fill="#ffffb3" stroke="#000000" points="890.5996,-122 787.4004,-122 787.4004,-86 890.5996,-86 890.5996,-122"/>
<text text-anchor="middle" x="839" y="-99.8" font-family="Times,serif" font-size="14.00" fill="#000000">TaxComponent</text>
</g>
<!-- TaxComponent&#45;&gt;AppModule -->
<g id="edge12" class="edge">
<title>TaxComponent&#45;&gt;AppModule</title>
<path fill="none" stroke="#000000" d="M839,-122.2667C839,-140.5552 839,-166 839,-166 839,-166 1388.216,-166 1388.216,-166"/>
<polygon fill="#000000" stroke="#000000" points="1388.216,-169.5001 1398.216,-166 1388.216,-162.5001 1388.216,-169.5001"/>
</g>
<!-- TopComponent -->
<g id="node13" class="node">
<title>TopComponent</title>
<polygon fill="#ffffb3" stroke="#000000" points="769.8851,-122 666.1149,-122 666.1149,-86 769.8851,-86 769.8851,-122"/>
<text text-anchor="middle" x="718" y="-99.8" font-family="Times,serif" font-size="14.00" fill="#000000">TopComponent</text>
</g>
<!-- TopComponent&#45;&gt;AppModule -->
<g id="edge13" class="edge">
<title>TopComponent&#45;&gt;AppModule</title>
<path fill="none" stroke="#000000" d="M718,-122.1061C718,-141.3391 718,-169 718,-169 718,-169 1388.3256,-169 1388.3256,-169"/>
<polygon fill="#000000" stroke="#000000" points="1388.3256,-172.5001 1398.3256,-169 1388.3255,-165.5001 1388.3256,-172.5001"/>
</g>
<!-- AppComponent  -->
<g id="node15" class="node">
<title>AppComponent </title>
<polygon fill="#80b1d3" stroke="#000000" points="2397.439,-252 2288.561,-252 2288.561,-216 2397.439,-216 2397.439,-252"/>
<text text-anchor="middle" x="2343" y="-229.8" font-family="Times,serif" font-size="14.00" fill="#000000">AppComponent </text>
</g>
<!-- AppModule&#45;&gt;AppComponent  -->
<g id="edge14" class="edge">
<title>AppModule&#45;&gt;AppComponent </title>
<path fill="none" stroke="#000000" stroke-dasharray="1,5" d="M1440,-187.1061C1440,-206.3391 1440,-234 1440,-234 1440,-234 2278.5469,-234 2278.5469,-234"/>
<polygon fill="#000000" stroke="#000000" points="2278.5469,-237.5001 2288.5469,-234 2278.5468,-230.5001 2278.5469,-237.5001"/>
</g>
<!-- BrowserAppModule -->
<g id="node20" class="node">
<title>BrowserAppModule</title>
<polygon fill="#8dd3c7" stroke="#000000" points="2560.58,-252 2557.58,-256 2536.58,-256 2533.58,-252 2429.42,-252 2429.42,-216 2560.58,-216 2560.58,-252"/>
<text text-anchor="middle" x="2495" y="-229.8" font-family="Times,serif" font-size="14.00" fill="#000000">BrowserAppModule</text>
</g>
<!-- AppModule&#45;&gt;BrowserAppModule -->
<g id="edge19" class="edge">
<title>AppModule&#45;&gt;BrowserAppModule</title>
<path fill="none" stroke="#000000" d="M1481.6822,-183C1677.3188,-183 2495,-183 2495,-183 2495,-183 2495,-205.8757 2495,-205.8757"/>
<polygon fill="#000000" stroke="#000000" points="2491.5001,-205.8757 2495,-215.8757 2498.5001,-205.8757 2491.5001,-205.8757"/>
</g>
<!-- ServerAppModule -->
<g id="node21" class="node">
<title>ServerAppModule</title>
<polygon fill="#8dd3c7" stroke="#000000" points="2705.1895,-252 2702.1895,-256 2681.1895,-256 2678.1895,-252 2584.8105,-252 2584.8105,-216 2705.1895,-216 2705.1895,-252"/>
<text text-anchor="middle" x="2645" y="-229.8" font-family="Times,serif" font-size="14.00" fill="#000000">ServerAppModule</text>
</g>
<!-- AppModule&#45;&gt;ServerAppModule -->
<g id="edge21" class="edge">
<title>AppModule&#45;&gt;ServerAppModule</title>
<path fill="none" stroke="#000000" d="M1481.814,-179C1696.5145,-179 2665.0316,-179 2665.0316,-179 2665.0316,-179 2665.0316,-205.9909 2665.0316,-205.9909"/>
<polygon fill="#000000" stroke="#000000" points="2661.5317,-205.9909 2665.0316,-215.9909 2668.5317,-205.991 2661.5317,-205.9909"/>
</g>
<!-- ContactService -->
<g id="node16" class="node">
<title>ContactService</title>
<ellipse fill="#fdb462" stroke="#000000" cx="572" cy="-104" rx="70.0596" ry="18"/>
<text text-anchor="middle" x="572" y="-99.8" font-family="Times,serif" font-size="14.00" fill="#000000">ContactService</text>
</g>
<!-- ContactService&#45;&gt;AppModule -->
<g id="edge15" class="edge">
<title>ContactService&#45;&gt;AppModule</title>
<path fill="none" stroke="#000000" d="M572,-122.1289C572,-142.5724 572,-173 572,-173 572,-173 1388.1346,-173 1388.1346,-173"/>
<polygon fill="#000000" stroke="#000000" points="1388.1346,-176.5001 1398.1346,-173 1388.1345,-169.5001 1388.1346,-176.5001"/>
</g>
<!-- DivPositionsService -->
<g id="node17" class="node">
<title>DivPositionsService</title>
<ellipse fill="#fdb462" stroke="#000000" cx="394" cy="-104" rx="89.7826" ry="18"/>
<text text-anchor="middle" x="394" y="-99.8" font-family="Times,serif" font-size="14.00" fill="#000000">DivPositionsService</text>
</g>
<!-- DivPositionsService&#45;&gt;AppModule -->
<g id="edge16" class="edge">
<title>DivPositionsService&#45;&gt;AppModule</title>
<path fill="none" stroke="#000000" d="M394,-122.0449C394,-143.6623 394,-177 394,-177 394,-177 1388.0256,-177 1388.0256,-177"/>
<polygon fill="#000000" stroke="#000000" points="1388.0257,-180.5001 1398.0256,-177 1388.0256,-173.5001 1388.0257,-180.5001"/>
</g>
<!-- SocialService -->
<g id="node18" class="node">
<title>SocialService</title>
<ellipse fill="#fdb462" stroke="#000000" cx="222" cy="-104" rx="64.2591" ry="18"/>
<text text-anchor="middle" x="222" y="-99.8" font-family="Times,serif" font-size="14.00" fill="#000000">SocialService</text>
</g>
<!-- SocialService&#45;&gt;AppModule -->
<g id="edge17" class="edge">
<title>SocialService&#45;&gt;AppModule</title>
<path fill="none" stroke="#000000" d="M222,-122.0109C222,-144.4852 222,-180 222,-180 222,-180 1388.0737,-180 1388.0737,-180"/>
<polygon fill="#000000" stroke="#000000" points="1388.0737,-183.5001 1398.0737,-180 1388.0736,-176.5001 1388.0737,-183.5001"/>
</g>
<!-- WindowRef -->
<g id="node19" class="node">
<title>WindowRef</title>
<ellipse fill="#fdb462" stroke="#000000" cx="82" cy="-104" rx="58.4687" ry="18"/>
<text text-anchor="middle" x="82" y="-99.8" font-family="Times,serif" font-size="14.00" fill="#000000">WindowRef</text>
</g>
<!-- WindowRef&#45;&gt;AppModule -->
<g id="edge18" class="edge">
<title>WindowRef&#45;&gt;AppModule</title>
<path fill="none" stroke="#000000" d="M82,-122.1532C82,-145.7566 82,-184 82,-184 82,-184 1388.2432,-184 1388.2432,-184"/>
<polygon fill="#000000" stroke="#000000" points="1388.2432,-187.5001 1398.2432,-184 1388.2432,-180.5001 1388.2432,-187.5001"/>
</g>
<!-- BrowserAppModule&#45;&gt;AppComponent  -->
<g id="edge20" class="edge">
<title>BrowserAppModule&#45;&gt;AppComponent </title>
<path fill="none" stroke="#000000" stroke-dasharray="1,5" d="M2429.2146,-234C2429.2146,-234 2407.4763,-234 2407.4763,-234"/>
<polygon fill="#000000" stroke="#000000" points="2407.4764,-230.5001 2397.4763,-234 2407.4763,-237.5001 2407.4764,-230.5001"/>
</g>
<!-- ServerAppModule&#45;&gt;AppComponent  -->
<g id="edge22" class="edge">
<title>ServerAppModule&#45;&gt;AppComponent </title>
<path fill="none" stroke="#000000" stroke-dasharray="1,5" d="M2624.9684,-215.7566C2624.9684,-208.5703 2624.9684,-202 2624.9684,-202 2624.9684,-202 2342.8476,-202 2342.8476,-202 2342.8476,-202 2342.8476,-205.7566 2342.8476,-205.7566"/>
<polygon fill="#000000" stroke="#000000" points="2339.3477,-205.7566 2342.8476,-215.7566 2346.3477,-205.7566 2339.3477,-205.7566"/>
</g>
</g>
</svg>
